<svg width="96" height="96" xmlns="http://www.w3.org/2000/svg" xmlns:xlink="http://www.w3.org/1999/xlink" xml:space="preserve" overflow="hidden"><g transform="translate(-95 -133)"><path d="M145 163 141 163C138.8 163 137 161.2 137 159L137 151C137 148.8 138.8 147 141 147L145 147C147.2 147 149 148.8 149 151L149 159C149 161.2 147.2 163 145 163Z" fill="#FFFFFF"/><path d="M175 183 151 183 151 179 175 179 175 183ZM175 195 151 195 151 191 175 191 175 195ZM175 207 151 207 151 203 175 203 175 207ZM143 207 111 207 111 199C111 197.8 111.6 196.6 112.6 195.8 114.8 194.2 117.6 192.8 120.4 192 122.6 191.4 124.8 191 127 191 129.4 191 131.6 191.4 133.6 192 136.4 192.8 139.2 194 141.4 195.8 142.4 196.6 143 197.8 143 199L143 207ZM127 173C131.4 173 135 176.6 135 181 135 185.4 131.4 189 127 189 122.6 189 119 185.4 119 181 119 176.6 122.6 173 127 173ZM179 159 153 159C153 163.4 149.4 167 145 167L141 167C136.6 167 133 163.4 133 159L107 159C104.8 159 103 160.8 103 163L103 211C103 213.2 104.8 215 107 215L179 215C181.2 215 183 213.2 183 211L183 163C183 160.8 181.2 159 179 159Z" fill="#FFFFFF"/></g></svg>