<svg width="96" height="96" xmlns="http://www.w3.org/2000/svg" xmlns:xlink="http://www.w3.org/1999/xlink" xml:space="preserve" overflow="hidden"><g transform="translate(-340 -348)"><path d="M382 375 398 375 398 372C398 369.8 396.2 368 394 368L352 368C349.8 368 348 369.8 348 372L348 399C348 401.2 349.8 403 352 403L358 403 358 413 368 403 374 403 374 383C374 378.6 377.6 375 382 375Z" fill="#C0D5ED"/><path d="M424 379 382 379C379.8 379 378 380.8 378 383L378 410C378 412.2 379.8 414 382 414L408 414 418 424 418 414 424 414C426.2 414 428 412.2 428 410L428 383C428 380.8 426.2 379 424 379Z" fill="#C0D5ED"/></g></svg>