<svg width="96" height="96" xmlns="http://www.w3.org/2000/svg" xmlns:xlink="http://www.w3.org/1999/xlink" xml:space="preserve" overflow="hidden"><g transform="translate(-340 -499)"><path d="M382 526 398 526 398 523C398 520.8 396.2 519 394 519L352 519C349.8 519 348 520.8 348 523L348 550C348 552.2 349.8 554 352 554L358 554 358 564 368 554 374 554 374 534C374 529.6 377.6 526 382 526Z" fill="#E0144C"/><path d="M424 530 382 530C379.8 530 378 531.8 378 534L378 561C378 563.2 379.8 565 382 565L408 565 418 575 418 565 424 565C426.2 565 428 563.2 428 561L428 534C428 531.8 426.2 530 424 530Z" fill="#E0144C"/></g></svg>