<svg width="96" height="96" xmlns="http://www.w3.org/2000/svg" xmlns:xlink="http://www.w3.org/1999/xlink" xml:space="preserve" overflow="hidden"><g transform="translate(-343 -599)"><path d="M385 626 401 626 401 623C401 620.8 399.2 619 397 619L355 619C352.8 619 351 620.8 351 623L351 650C351 652.2 352.8 654 355 654L361 654 361 664 371 654 377 654 377 634C377 629.6 380.6 626 385 626Z" fill="#FFFFFF"/><path d="M427 630 385 630C382.8 630 381 631.8 381 634L381 661C381 663.2 382.8 665 385 665L411 665 421 675 421 665 427 665C429.2 665 431 663.2 431 661L431 634C431 631.8 429.2 630 427 630Z" fill="#FFFFFF"/></g></svg>