<svg width="96" height="96" xmlns="http://www.w3.org/2000/svg" xmlns:xlink="http://www.w3.org/1999/xlink" xml:space="preserve" overflow="hidden"><g transform="translate(-478 -355)"><path d="M526 399C521 399 517 395 517 390 517 385 521 381 526 381 531 381 535 385 535 390 535 395 531 399 526 399ZM526 369C519.1 369 512.6 372.4 508.7 378.2 504.8 383.9 504 391.2 506.5 397.7L516 418.7 524.2 435.9C524.5 436.6 525.2 437 526 437 526.8 437 527.5 436.6 527.8 435.9L536 418.7 545.5 397.7C548 391.2 547.2 383.9 543.3 378.2 539.4 372.4 532.9 369 526 369Z" fill="#C0D5ED"/></g></svg>