<svg width="96" height="96" xmlns="http://www.w3.org/2000/svg" xmlns:xlink="http://www.w3.org/1999/xlink" xml:space="preserve" overflow="hidden"><g transform="translate(-478 -508)"><path d="M526 552C521 552 517 548 517 543 517 538 521 534 526 534 531 534 535 538 535 543 535 548 531 552 526 552ZM526 522C519.1 522 512.6 525.4 508.7 531.2 504.8 536.9 504 544.2 506.5 550.7L516 571.7 524.2 588.9C524.5 589.6 525.2 590 526 590 526.8 590 527.5 589.6 527.8 588.9L536 571.7 545.5 550.7C548 544.2 547.2 536.9 543.3 531.2 539.4 525.4 532.9 522 526 522Z" fill="#E0144C"/></g></svg>