<svg width="96" height="96" xmlns="http://www.w3.org/2000/svg" xmlns:xlink="http://www.w3.org/1999/xlink" xml:space="preserve" overflow="hidden"><g transform="translate(-480 -609)"><path d="M528 653C523 653 519 649 519 644 519 639 523 635 528 635 533 635 537 639 537 644 537 649 533 653 528 653ZM528 623C521.1 623 514.6 626.4 510.7 632.2 506.8 637.9 506 645.2 508.5 651.7L518 672.7 526.2 689.9C526.5 690.6 527.2 691 528 691 528.8 691 529.5 690.6 529.8 689.9L538 672.7 547.5 651.7C550 645.2 549.2 637.9 545.3 632.2 541.4 626.4 534.9 623 528 623Z" fill="#FFFFFF"/></g></svg>