<svg width="96" height="96" xmlns="http://www.w3.org/2000/svg" xmlns:xlink="http://www.w3.org/1999/xlink" xml:space="preserve" overflow="hidden"><g transform="translate(-191 -348)"><path d="M263.5 411.1C261.9 409.5 259.5 408.7 257.3 409.2L252.8 404.8C256.8 399.6 259 393.2 259 386.6 259.1 369.9 245.6 356.4 229 356.3 212.4 356.2 198.9 369.7 198.8 386.3 198.7 402.9 212.2 416.4 228.8 416.5 235.4 416.5 241.9 414.3 247.2 410.3L251.6 414.7C251.2 417 251.9 419.3 253.5 421L266 433.5C268.7 436.2 273.2 436.2 275.9 433.5 278.6 430.8 278.6 426.3 275.9 423.6L263.5 411.1ZM229 410.5C215.7 410.5 205 399.8 205 386.5 205 373.2 215.7 362.5 229 362.5 242.3 362.5 253 373.2 253 386.5 253 399.7 242.2 410.5 229 410.5Z" fill="#C0D5ED"/><path d="M250.5 385 244.8 385C244.3 385.1 243.8 385.4 243.5 385.8L239.7 389.9 236.5 378.8C236.2 377.9 235.2 377.3 234.3 377.6 233.8 377.8 233.3 378.1 233.1 378.7L227.1 394.6 223 372.6C222.8 371.6 221.9 371 221 371.2 220.4 371.3 219.9 371.8 219.6 372.4L215.3 385 207.5 385 207.5 389 216.6 389C217.4 388.9 218.1 388.3 218.3 387.5L220.8 379.9 224.8 401.4C224.9 402.2 225.6 402.8 226.4 402.8L226.6 402.8C227.3 402.8 228 402.4 228.3 401.7L234.7 384.9 237.3 393.9C237.6 394.8 238.5 395.4 239.5 395.1 239.8 395 240.1 394.8 240.3 394.6L245.7 389 250.6 389 250.6 385Z" fill="#C0D5ED"/></g></svg>