<svg width="96" height="96" xmlns="http://www.w3.org/2000/svg" xmlns:xlink="http://www.w3.org/1999/xlink" xml:space="preserve" overflow="hidden"><g transform="translate(-191 -499)"><path d="M263.5 562.1C261.9 560.5 259.5 559.7 257.3 560.2L252.8 555.8C256.8 550.6 259 544.2 259 537.6 259.1 520.9 245.6 507.4 229 507.3 212.4 507.2 198.9 520.7 198.8 537.3 198.7 553.9 212.2 567.4 228.8 567.5 235.4 567.5 241.9 565.3 247.2 561.3L251.6 565.7C251.2 568 251.9 570.3 253.5 572L266 584.5C268.7 587.2 273.2 587.2 275.9 584.5 278.6 581.8 278.6 577.3 275.9 574.6L263.5 562.1ZM229 561.5C215.7 561.5 205 550.8 205 537.5 205 524.2 215.7 513.5 229 513.5 242.3 513.5 253 524.2 253 537.5 253 550.7 242.2 561.5 229 561.5Z" fill="#E0144C"/><path d="M250.5 536 244.8 536C244.3 536.1 243.8 536.4 243.5 536.8L239.7 540.9 236.5 529.8C236.2 528.9 235.2 528.3 234.3 528.6 233.8 528.8 233.3 529.1 233.1 529.7L227.1 545.6 223 523.6C222.8 522.6 221.9 522 221 522.2 220.4 522.3 219.9 522.8 219.6 523.4L215.3 536 207.5 536 207.5 540 216.6 540C217.4 539.9 218.1 539.3 218.3 538.5L220.8 530.9 224.8 552.4C224.9 553.2 225.6 553.8 226.4 553.8L226.6 553.8C227.3 553.8 228 553.4 228.3 552.7L234.7 535.9 237.3 544.9C237.6 545.8 238.5 546.4 239.5 546.1 239.8 546 240.1 545.8 240.3 545.6L245.7 540 250.6 540 250.6 536Z" fill="#E0144C"/></g></svg>