<svg width="96" height="96" xmlns="http://www.w3.org/2000/svg" xmlns:xlink="http://www.w3.org/1999/xlink" xml:space="preserve" overflow="hidden"><g transform="translate(-193 -599)"><path d="M265.5 662.1C263.9 660.5 261.5 659.7 259.3 660.2L254.8 655.8C258.8 650.6 261 644.2 261 637.6 261.1 620.9 247.6 607.4 231 607.3 214.4 607.2 200.9 620.7 200.8 637.3 200.7 653.9 214.2 667.4 230.8 667.5 237.4 667.5 243.9 665.3 249.2 661.3L253.6 665.7C253.2 668 253.9 670.3 255.5 672L268 684.5C270.7 687.2 275.2 687.2 277.9 684.5 280.6 681.8 280.6 677.3 277.9 674.6L265.5 662.1ZM231 661.5C217.7 661.5 207 650.8 207 637.5 207 624.2 217.7 613.5 231 613.5 244.3 613.5 255 624.2 255 637.5 255 650.7 244.2 661.5 231 661.5Z" fill="#FFFFFF"/><path d="M252.5 636 246.8 636C246.3 636.1 245.8 636.4 245.5 636.8L241.7 640.9 238.5 629.8C238.2 628.9 237.2 628.3 236.3 628.6 235.8 628.8 235.3 629.1 235.1 629.7L229.1 645.6 225 623.6C224.8 622.6 223.9 622 223 622.2 222.4 622.3 221.9 622.8 221.6 623.4L217.3 636 209.5 636 209.5 640 218.6 640C219.4 639.9 220.1 639.3 220.3 638.5L222.8 630.9 226.8 652.4C226.9 653.2 227.6 653.8 228.4 653.8L228.6 653.8C229.3 653.8 230 653.4 230.3 652.7L236.7 635.9 239.3 644.9C239.6 645.8 240.5 646.4 241.5 646.1 241.8 646 242.1 645.8 242.3 645.6L247.7 640 252.6 640 252.6 636Z" fill="#FFFFFF"/></g></svg>