<svg width="1280" height="720" xmlns="http://www.w3.org/2000/svg" xmlns:xlink="http://www.w3.org/1999/xlink" overflow="hidden"><defs><filter id="fx0" x="-10%" y="-10%" width="120%" height="120%" filterUnits="userSpaceOnUse" primitiveUnits="userSpaceOnUse"><feComponentTransfer color-interpolation-filters="sRGB"><feFuncR type="discrete" tableValues="0 0"/><feFuncG type="discrete" tableValues="0 0"/><feFuncB type="discrete" tableValues="0 0"/><feFuncA type="linear" slope="0.0196078" intercept="0"/></feComponentTransfer><feGaussianBlur stdDeviation="2.22222 2.22222"/></filter><filter id="fx1" x="-10%" y="-10%" width="120%" height="120%" filterUnits="userSpaceOnUse" primitiveUnits="userSpaceOnUse"><feComponentTransfer color-interpolation-filters="sRGB"><feFuncR type="discrete" tableValues="0 0"/><feFuncG type="discrete" tableValues="0 0"/><feFuncB type="discrete" tableValues="0 0"/><feFuncA type="linear" slope="0.0392157" intercept="0"/></feComponentTransfer><feGaussianBlur stdDeviation="2.22222 2.22222"/></filter><filter id="fx2" x="-10%" y="-10%" width="120%" height="120%" filterUnits="userSpaceOnUse" primitiveUnits="userSpaceOnUse"><feComponentTransfer color-interpolation-filters="sRGB"><feFuncR type="discrete" tableValues="0 0"/><feFuncG type="discrete" tableValues="0 0"/><feFuncB type="discrete" tableValues="0 0"/><feFuncA type="linear" slope="0.0392157" intercept="0"/></feComponentTransfer><feGaussianBlur stdDeviation="2.22222 2.22222"/></filter><filter id="fx3" x="-10%" y="-10%" width="120%" height="120%" filterUnits="userSpaceOnUse" primitiveUnits="userSpaceOnUse"><feComponentTransfer color-interpolation-filters="sRGB"><feFuncR type="discrete" tableValues="0 0"/><feFuncG type="discrete" tableValues="0 0"/><feFuncB type="discrete" tableValues="0 0"/><feFuncA type="linear" slope="0.0392157" intercept="0"/></feComponentTransfer><feGaussianBlur stdDeviation="2.22222 2.22222"/></filter></defs><g><rect x="0" y="0" width="1280" height="720" fill="#F5F5F5"/><path d="M224.313 53.4021C225.177 43.9966 233.503 37.0726 242.908 37.937L336.486 46.5366C345.891 47.401 352.815 55.7263 351.951 65.1318L345.691 133.25C344.827 142.656 336.501 149.58 327.096 148.715L233.518 140.116C224.112 139.251 217.188 130.926 218.053 121.52Z" fill="#D9D9D9" fill-rule="evenodd"/><path d="M1136.53 89.2157C1137.4 79.8102 1145.72 72.8863 1155.13 73.7506L1248.71 82.3503C1258.11 83.2146 1265.04 91.54 1264.17 100.945L1257.91 169.064C1257.05 178.469 1248.72 185.393 1239.32 184.529L1145.74 175.929C1136.33 175.065 1129.41 166.74 1130.27 157.334Z" fill="#E67E22" fill-rule="evenodd"/><g filter="url(#fx0)" transform="translate(201 41)"><g><path d="M7.66 21.3934C7.66 13.8473 13.7773 7.73 21.3233 7.73L1048.68 7.73C1056.22 7.73 1062.34 13.8473 1062.34 21.3934L1062.34 123.607C1062.34 131.153 1056.22 137.27 1048.68 137.27L21.3233 137.27C13.7773 137.27 7.66 131.153 7.66 123.607Z" fill="#FFFFFF" fill-rule="evenodd"/></g></g><path d="M219 63.3954C219 55.9973 224.997 50 232.395 50L1239.6 50C1247 50 1253 55.9973 1253 63.3954L1253 163.605C1253 171.003 1247 177 1239.6 177L232.395 177C224.997 177 219 171.003 219 163.605Z" fill="#FFFFFF" fill-rule="evenodd"/><g filter="url(#fx1)" transform="translate(201 181)"><g><path d="M7.66 25.1998C7.66 15.8498 15.2397 8.27 24.5898 8.27L1045.41 8.27C1054.76 8.27 1062.34 15.8498 1062.34 25.1998L1062.34 269.8C1062.34 279.15 1054.76 286.73 1045.41 286.73L24.5898 286.73C15.2397 286.73 7.66 279.15 7.66 269.8Z" fill="#FFFFFF" fill-rule="evenodd"/></g></g><path d="M219 208.598C219 199.431 226.431 192 235.598 192L1236.4 192C1245.57 192 1253 199.431 1253 208.598L1253 448.402C1253 457.569 1245.57 465 1236.4 465L235.598 465C226.431 465 219 457.569 219 448.402Z" fill="#FFFFFF" fill-rule="evenodd"/><path d="M15 32.2231C15 24.3679 21.3679 18 29.2231 18L192.777 18C200.632 18 207 24.3679 207 32.2231L207 687.777C207 695.632 200.632 702 192.777 702L29.2231 702C21.3679 702 15 695.632 15 687.777Z" fill="#D8D8D8" fill-rule="evenodd"/><path d="M15 41.2234C15 33.368 21.368 27 29.2234 27L192.777 27C200.632 27 207 33.368 207 41.2234L207 687.777C207 695.632 200.632 702 192.777 702L29.2234 702C21.368 702 15 695.632 15 687.777Z" fill="#2C3E50" fill-rule="evenodd"/><g filter="url(#fx2)" transform="translate(204 469)"><g><path d="M7.87 21.5994C7.87 13.9616 14.0616 7.76999 21.6994 7.76999L721.301 7.76999C728.938 7.76999 735.13 13.9616 735.13 21.5994L735.13 221.401C735.13 229.038 728.938 235.23 721.301 235.23L21.6994 235.23C14.0616 235.23 7.87 229.038 7.87 221.401Z" fill="#FFFFFF" fill-rule="evenodd"/></g></g><path d="M219 492.558C219 485.07 225.07 479 232.558 479L918.442 479C925.93 479 932 485.07 932 492.558L932 688.442C932 695.93 925.93 702 918.442 702L232.558 702C225.07 702 219 695.93 219 688.442Z" fill="#FFFFFF" fill-rule="evenodd"/><g filter="url(#fx3)" transform="translate(939 469)"><g><path d="M7.96997 21.5996C7.96997 13.9617 14.1617 7.76999 21.7996 7.76999L303.2 7.76999C310.838 7.76999 317.03 13.9617 317.03 21.5996L317.03 221.4C317.03 229.038 310.838 235.23 303.2 235.23L21.7996 235.23C14.1617 235.23 7.96997 229.038 7.96997 221.4Z" fill="#FFFFFF" fill-rule="evenodd"/></g></g><path d="M950 492.558C950 485.07 956.07 479 963.558 479L1239.44 479C1246.93 479 1253 485.07 1253 492.558L1253 688.442C1253 695.93 1246.93 702 1239.44 702L963.558 702C956.07 702 950 695.93 950 688.442Z" fill="#FFFFFF" fill-rule="evenodd"/><path d="M34 354.621C34 343.232 43.2321 334 54.6206 334L167.379 334C178.768 334 188 343.232 188 354.621L188 365.379C188 376.768 178.768 386 167.379 386L54.6206 386C43.2321 386 34 376.768 34 365.379Z" fill="#262626" fill-rule="evenodd"/></g></svg>