<svg width="1280" height="720" xmlns="http://www.w3.org/2000/svg" xmlns:xlink="http://www.w3.org/1999/xlink" overflow="hidden"><defs><filter id="fx0" x="-10%" y="-10%" width="120%" height="120%" filterUnits="userSpaceOnUse" primitiveUnits="userSpaceOnUse"><feComponentTransfer color-interpolation-filters="sRGB"><feFuncR type="discrete" tableValues="0 0"/><feFuncG type="discrete" tableValues="0 0"/><feFuncB type="discrete" tableValues="0 0"/><feFuncA type="linear" slope="0.0196078" intercept="0"/></feComponentTransfer><feGaussianBlur stdDeviation="2.22222 2.22222"/></filter><filter id="fx1" x="-10%" y="-10%" width="120%" height="120%" filterUnits="userSpaceOnUse" primitiveUnits="userSpaceOnUse"><feComponentTransfer color-interpolation-filters="sRGB"><feFuncR type="discrete" tableValues="0 0"/><feFuncG type="discrete" tableValues="0 0"/><feFuncB type="discrete" tableValues="0 0"/><feFuncA type="linear" slope="0.0392157" intercept="0"/></feComponentTransfer><feGaussianBlur stdDeviation="2.22222 2.22222"/></filter><filter id="fx2" x="-10%" y="-10%" width="120%" height="120%" filterUnits="userSpaceOnUse" primitiveUnits="userSpaceOnUse"><feComponentTransfer color-interpolation-filters="sRGB"><feFuncR type="discrete" tableValues="0 0"/><feFuncG type="discrete" tableValues="0 0"/><feFuncB type="discrete" tableValues="0 0"/><feFuncA type="linear" slope="0.0392157" intercept="0"/></feComponentTransfer><feGaussianBlur stdDeviation="2.22222 2.22222"/></filter><filter id="fx3" x="-10%" y="-10%" width="120%" height="120%" filterUnits="userSpaceOnUse" primitiveUnits="userSpaceOnUse"><feComponentTransfer color-interpolation-filters="sRGB"><feFuncR type="discrete" tableValues="0 0"/><feFuncG type="discrete" tableValues="0 0"/><feFuncB type="discrete" tableValues="0 0"/><feFuncA type="linear" slope="0.0392157" intercept="0"/></feComponentTransfer><feGaussianBlur stdDeviation="2.22222 2.22222"/></filter></defs><g><rect x="0" y="0" width="1280" height="720" fill="#F5F5F5"/><path d="M29.5089 48.8315C30.199 41.3216 36.8465 35.7931 44.3563 36.4833L168.627 47.9035C176.136 48.5937 181.665 55.2411 180.975 62.751L175.976 117.141C175.286 124.651 168.639 130.179 161.129 129.489L36.8587 118.069C29.3489 117.379 23.8204 110.731 24.5106 103.221Z" fill="#D9D9D9" fill-rule="evenodd"/><path d="M1112.02 77.4272C1112.71 69.9173 1119.36 64.3888 1126.87 65.079L1251.14 76.4992C1258.65 77.1894 1264.18 83.8368 1263.49 91.3467L1258.49 145.736C1257.8 153.246 1251.15 158.775 1243.64 158.085L1119.37 146.664C1111.86 145.974 1106.34 139.327 1107.03 131.817Z" fill="#E67E22" fill-rule="evenodd"/><g filter="url(#fx0)" transform="translate(4 40)"><g><path d="M7.72 25.1607C7.72 15.6776 15.4076 7.99 24.8906 7.99L1243.11 7.99C1252.59 7.99 1260.28 15.6776 1260.28 25.1607L1260.28 93.8393C1260.28 103.322 1252.59 111.01 1243.11 111.01L24.8906 111.01C15.4076 111.01 7.72 103.322 7.72 93.8393Z" fill="#FFFFFF" fill-rule="evenodd"/></g></g><path d="M24 65.834C24 56.5368 31.5368 49 40.834 49L1235.17 49C1244.46 49 1252 56.5368 1252 65.834L1252 133.166C1252 142.463 1244.46 150 1235.17 150L40.834 150C31.5368 150 24 142.463 24 133.166Z" fill="#FFFFFF" fill-rule="evenodd"/><g filter="url(#fx1)" transform="translate(10 156)"><g><path d="M7.84 22.4511C7.84 14.238 14.498 7.58 22.7111 7.58L621.289 7.58C629.502 7.58 636.16 14.238 636.16 22.4511L636.16 545.549C636.16 553.762 629.502 560.42 621.289 560.42L22.7111 560.42C14.498 560.42 7.84 553.762 7.84 545.549Z" fill="#FFFFFF" fill-rule="evenodd"/></g></g><path d="M24 183.579C24 175.527 30.5275 169 38.5795 169L625.421 169C633.473 169 640 175.527 640 183.579L640 696.42C640 704.473 633.473 711 625.421 711L38.5795 711C30.5275 711 24 704.473 24 696.42Z" fill="#FFFFFF" fill-rule="evenodd"/><g filter="url(#fx2)" transform="translate(643 327)"><g><path d="M8.01001 22.8389C8.01001 14.7982 14.5282 8.28 22.5689 8.28L604.431 8.28C612.472 8.28 618.99 14.7982 618.99 22.8389L618.99 373.161C618.99 381.202 612.472 387.72 604.431 387.72L22.5689 387.72C14.5282 387.72 8.01001 381.202 8.01001 373.161Z" fill="#FFFFFF" fill-rule="evenodd"/></g></g><path d="M657 353.273C657 345.39 663.39 339 671.273 339L1241.73 339C1249.61 339 1256 345.39 1256 353.273L1256 696.727C1256 704.61 1249.61 711 1241.73 711L671.273 711C663.39 711 657 704.61 657 696.727Z" fill="#FFFFFF" fill-rule="evenodd"/><g filter="url(#fx3)" transform="translate(643 159)"><g><path d="M8.01001 18.2188C8.01001 12.8071 12.3971 8.42 17.8088 8.42L609.191 8.42C614.603 8.42 618.99 12.8071 618.99 18.2188L618.99 159.781C618.99 165.193 614.603 169.58 609.191 169.58L17.8088 169.58C12.3971 169.58 8.01001 165.193 8.01001 159.781Z" fill="#FFFFFF" fill-rule="evenodd"/></g></g><path d="M657 178.607C657 173.301 661.301 169 666.607 169L1246.39 169C1251.7 169 1256 173.301 1256 178.607L1256 317.393C1256 322.699 1251.7 327 1246.39 327L666.607 327C661.301 327 657 322.699 657 317.393Z" fill="#FFFFFF" fill-rule="evenodd"/></g></svg>