<svg width="1280" height="720" xmlns="http://www.w3.org/2000/svg" xmlns:xlink="http://www.w3.org/1999/xlink" overflow="hidden"><defs><clipPath id="clip0"><rect x="0" y="0" width="1280" height="720"/></clipPath><radialGradient cx="6096000" cy="257175" r="6108038" fx="6096000" gradientUnits="userSpaceOnUse" spreadMethod="pad" id="stroke1" gradientTransform="matrix(-0.000104987 0 0 -0.000104987 1280.5 54.5001)"><stop offset="0" stop-color="#E0144C"/><stop offset="0.0042735" stop-color="#E0154D"/><stop offset="0.00854701" stop-color="#E0174E"/><stop offset="0.0128205" stop-color="#E01950"/><stop offset="0.017094" stop-color="#E01B51"/><stop offset="0.0213675" stop-color="#E11D53"/><stop offset="0.025641" stop-color="#E11F54"/><stop offset="0.0299145" stop-color="#E12155"/><stop offset="0.034188" stop-color="#E12257"/><stop offset="0.0384615" stop-color="#E22458"/><stop offset="0.042735" stop-color="#E2265A"/><stop offset="0.0470085" stop-color="#E2285B"/><stop offset="0.0512821" stop-color="#E22A5C"/><stop offset="0.0555556" stop-color="#E32B5E"/><stop offset="0.0598291" stop-color="#E32D5F"/><stop offset="0.0641026" stop-color="#E32F60"/><stop offset="0.0683761" stop-color="#E33162"/><stop offset="0.0726496" stop-color="#E43263"/><stop offset="0.0769231" stop-color="#E43464"/><stop offset="0.0811966" stop-color="#E43666"/><stop offset="0.0854701" stop-color="#E43867"/><stop offset="0.0897436" stop-color="#E53968"/><stop offset="0.0940171" stop-color="#E53B6A"/><stop offset="0.0982906" stop-color="#E53D6B"/><stop offset="0.102564" stop-color="#E53F6C"/><stop offset="0.106838" stop-color="#E5406E"/><stop offset="0.111111" stop-color="#E6426F"/><stop offset="0.115385" stop-color="#E64470"/><stop offset="0.119658" stop-color="#E64572"/><stop offset="0.123932" stop-color="#E64773"/><stop offset="0.128205" stop-color="#E74974"/><stop offset="0.132479" stop-color="#E74A75"/><stop offset="0.136752" stop-color="#E74C77"/><stop offset="0.141026" stop-color="#E74E78"/><stop offset="0.145299" stop-color="#E74F79"/><stop offset="0.149573" stop-color="#E8517A"/><stop offset="0.153846" stop-color="#E8537C"/><stop offset="0.15812" stop-color="#E8547D"/><stop offset="0.162393" stop-color="#E8567E"/><stop offset="0.166667" stop-color="#E8587F"/><stop offset="0.17094" stop-color="#E95981"/><stop offset="0.175214" stop-color="#E95B82"/><stop offset="0.179487" stop-color="#E95C83"/><stop offset="0.183761" stop-color="#E95E84"/><stop offset="0.188034" stop-color="#EA5F85"/><stop offset="0.192308" stop-color="#EA6187"/><stop offset="0.196581" stop-color="#EA6388"/><stop offset="0.200855" stop-color="#EA6489"/><stop offset="0.205128" stop-color="#EA668A"/><stop offset="0.209402" stop-color="#EB678B"/><stop offset="0.213675" stop-color="#EB698C"/><stop offset="0.217949" stop-color="#EB6A8E"/><stop offset="0.222222" stop-color="#EB6C8F"/><stop offset="0.226496" stop-color="#EB6D90"/><stop offset="0.230769" stop-color="#EC6F91"/><stop offset="0.235043" stop-color="#EC7092"/><stop offset="0.239316" stop-color="#EC7293"/><stop offset="0.24359" stop-color="#EC7394"/><stop offset="0.247863" stop-color="#EC7596"/><stop offset="0.252137" stop-color="#ED7697"/><stop offset="0.25641" stop-color="#ED7898"/><stop offset="0.260684" stop-color="#ED7999"/><stop offset="0.264957" stop-color="#ED7B9A"/><stop offset="0.269231" stop-color="#ED7C9B"/><stop offset="0.273504" stop-color="#ED7D9C"/><stop offset="0.277778" stop-color="#EE7F9D"/><stop offset="0.282051" stop-color="#EE809E"/><stop offset="0.286325" stop-color="#EE829F"/><stop offset="0.290598" stop-color="#EE83A0"/><stop offset="0.294872" stop-color="#EE84A2"/><stop offset="0.299145" stop-color="#EF86A3"/><stop offset="0.303419" stop-color="#EF87A4"/><stop offset="0.307692" stop-color="#EF89A5"/><stop offset="0.311966" stop-color="#EF8AA6"/><stop offset="0.316239" stop-color="#EF8BA7"/><stop offset="0.320513" stop-color="#EF8DA8"/><stop offset="0.324786" stop-color="#F08EA9"/><stop offset="0.32906" stop-color="#F08FAA"/><stop offset="0.333333" stop-color="#F091AB"/><stop offset="0.337607" stop-color="#F092AC"/><stop offset="0.34188" stop-color="#F093AD"/><stop offset="0.346154" stop-color="#F195AE"/><stop offset="0.350427" stop-color="#F196AF"/><stop offset="0.354701" stop-color="#F197B0"/><stop offset="0.358974" stop-color="#F198B1"/><stop offset="0.363248" stop-color="#F19AB2"/><stop offset="0.367521" stop-color="#F19BB3"/><stop offset="0.371795" stop-color="#F29CB4"/><stop offset="0.376068" stop-color="#F29DB5"/><stop offset="0.380342" stop-color="#F29FB6"/><stop offset="0.384615" stop-color="#F2A0B6"/><stop offset="0.388889" stop-color="#F2A1B7"/><stop offset="0.393162" stop-color="#F2A2B8"/><stop offset="0.397436" stop-color="#F3A4B9"/><stop offset="0.401709" stop-color="#F3A5BA"/><stop offset="0.405983" stop-color="#F3A6BB"/><stop offset="0.410256" stop-color="#F3A7BC"/><stop offset="0.41453" stop-color="#F3A8BD"/><stop offset="0.418803" stop-color="#F3AABE"/><stop offset="0.423077" stop-color="#F3ABBF"/><stop offset="0.42735" stop-color="#F4ACC0"/><stop offset="0.431624" stop-color="#F4ADC0"/><stop offset="0.435897" stop-color="#F4AEC1"/><stop offset="0.440171" stop-color="#F4AFC2"/><stop offset="0.444444" stop-color="#F4B0C3"/><stop offset="0.448718" stop-color="#F4B2C4"/><stop offset="0.452991" stop-color="#F4B3C5"/><stop offset="0.457265" stop-color="#F5B4C6"/><stop offset="0.461538" stop-color="#F5B5C6"/><stop offset="0.465812" stop-color="#F5B6C7"/><stop offset="0.470085" stop-color="#F5B7C8"/><stop offset="0.474359" stop-color="#F5B8C9"/><stop offset="0.478632" stop-color="#F5B9CA"/><stop offset="0.482906" stop-color="#F5BACB"/><stop offset="0.487179" stop-color="#F6BBCB"/><stop offset="0.491453" stop-color="#F6BCCC"/><stop offset="0.495726" stop-color="#F6BDCD"/><stop offset="0.5" stop-color="#F6BECE"/><stop offset="0.504274" stop-color="#F6BFCE"/><stop offset="0.508547" stop-color="#F6C0CF"/><stop offset="0.512821" stop-color="#F6C1D0"/><stop offset="0.517094" stop-color="#F7C2D1"/><stop offset="0.521368" stop-color="#F7C3D2"/><stop offset="0.525641" stop-color="#F7C4D2"/><stop offset="0.529915" stop-color="#F7C5D3"/><stop offset="0.534188" stop-color="#F7C6D4"/><stop offset="0.538462" stop-color="#F7C7D5"/><stop offset="0.542735" stop-color="#F7C8D5"/><stop offset="0.547009" stop-color="#F7C9D6"/><stop offset="0.551282" stop-color="#F8CAD7"/><stop offset="0.555556" stop-color="#F8CBD7"/><stop offset="0.559829" stop-color="#F8CCD8"/><stop offset="0.564103" stop-color="#F8CDD9"/><stop offset="0.568376" stop-color="#F8CED9"/><stop offset="0.57265" stop-color="#F8CFDA"/><stop offset="0.576923" stop-color="#F8D0DB"/><stop offset="0.581197" stop-color="#F8D1DB"/><stop offset="0.58547" stop-color="#F9D1DC"/><stop offset="0.589744" stop-color="#F9D2DD"/><stop offset="0.594017" stop-color="#F9D3DD"/><stop offset="0.598291" stop-color="#F9D4DE"/><stop offset="0.602564" stop-color="#F9D5DF"/><stop offset="0.606838" stop-color="#F9D6DF"/><stop offset="0.611111" stop-color="#F9D7E0"/><stop offset="0.615385" stop-color="#F9D7E1"/><stop offset="0.619658" stop-color="#F9D8E1"/><stop offset="0.623932" stop-color="#FAD9E2"/><stop offset="0.628205" stop-color="#FADAE2"/><stop offset="0.632479" stop-color="#FADBE3"/><stop offset="0.636752" stop-color="#FADBE4"/><stop offset="0.641026" stop-color="#FADCE4"/><stop offset="0.645299" stop-color="#FADDE5"/><stop offset="0.649573" stop-color="#FADEE5"/><stop offset="0.653846" stop-color="#FADEE6"/><stop offset="0.65812" stop-color="#FADFE7"/><stop offset="0.662393" stop-color="#FAE0E7"/><stop offset="0.666667" stop-color="#FBE1E8"/><stop offset="0.67094" stop-color="#FBE1E8"/><stop offset="0.675214" stop-color="#FBE2E9"/><stop offset="0.679487" stop-color="#FBE3E9"/><stop offset="0.683761" stop-color="#FBE3EA"/><stop offset="0.688034" stop-color="#FBE4EA"/><stop offset="0.692308" stop-color="#FBE5EB"/><stop offset="0.696581" stop-color="#FBE5EB"/><stop offset="0.700855" stop-color="#FBE6EC"/><stop offset="0.705128" stop-color="#FBE7EC"/><stop offset="0.709402" stop-color="#FBE7ED"/><stop offset="0.713675" stop-color="#FCE8ED"/><stop offset="0.717949" stop-color="#FCE9EE"/><stop offset="0.722222" stop-color="#FCE9EE"/><stop offset="0.726496" stop-color="#FCEAEF"/><stop offset="0.730769" stop-color="#FCEAEF"/><stop offset="0.735043" stop-color="#FCEBF0"/><stop offset="0.739316" stop-color="#FCECF0"/><stop offset="0.74359" stop-color="#FCECF1"/><stop offset="0.747863" stop-color="#FCEDF1"/><stop offset="0.752137" stop-color="#FCEDF1"/><stop offset="0.75641" stop-color="#FCEEF2"/><stop offset="0.760684" stop-color="#FCEEF2"/><stop offset="0.764957" stop-color="#FCEFF3"/><stop offset="0.769231" stop-color="#FDEFF3"/><stop offset="0.773504" stop-color="#FDF0F3"/><stop offset="0.777778" stop-color="#FDF0F4"/><stop offset="0.782051" stop-color="#FDF1F4"/><stop offset="0.786325" stop-color="#FDF1F5"/><stop offset="0.790598" stop-color="#FDF2F5"/><stop offset="0.794872" stop-color="#FDF2F5"/><stop offset="0.799145" stop-color="#FDF3F6"/><stop offset="0.803419" stop-color="#FDF3F6"/><stop offset="0.807692" stop-color="#FDF4F6"/><stop offset="0.811966" stop-color="#FDF4F7"/><stop offset="0.816239" stop-color="#FDF5F7"/><stop offset="0.820513" stop-color="#FDF5F7"/><stop offset="0.824786" stop-color="#FDF6F8"/><stop offset="0.82906" stop-color="#FDF6F8"/><stop offset="0.833333" stop-color="#FDF6F8"/><stop offset="0.837607" stop-color="#FDF7F9"/><stop offset="0.84188" stop-color="#FEF7F9"/><stop offset="0.846154" stop-color="#FEF7F9"/><stop offset="0.850427" stop-color="#FEF8F9"/><stop offset="0.854701" stop-color="#FEF8FA"/><stop offset="0.858974" stop-color="#FEF9FA"/><stop offset="0.863248" stop-color="#FEF9FA"/><stop offset="0.867521" stop-color="#FEF9FA"/><stop offset="0.871795" stop-color="#FEFAFB"/><stop offset="0.876068" stop-color="#FEFAFB"/><stop offset="0.880342" stop-color="#FEFAFB"/><stop offset="0.884615" stop-color="#FEFAFB"/><stop offset="0.888889" stop-color="#FEFBFC"/><stop offset="0.893162" stop-color="#FEFBFC"/><stop offset="0.897436" stop-color="#FEFBFC"/><stop offset="0.901709" stop-color="#FEFBFC"/><stop offset="0.905983" stop-color="#FEFCFC"/><stop offset="0.910256" stop-color="#FEFCFD"/><stop offset="0.91453" stop-color="#FEFCFD"/><stop offset="0.918803" stop-color="#FEFCFD"/><stop offset="0.923077" stop-color="#FEFDFD"/><stop offset="0.92735" stop-color="#FEFDFD"/><stop offset="0.931624" stop-color="#FEFDFD"/><stop offset="0.935897" stop-color="#FEFDFD"/><stop offset="0.940171" stop-color="#FEFDFE"/><stop offset="0.944444" stop-color="#FEFDFE"/><stop offset="0.948718" stop-color="#FEFEFE"/><stop offset="0.952991" stop-color="#FEFEFE"/><stop offset="0.957265" stop-color="#FEFEFE"/><stop offset="0.961538" stop-color="#FEFEFE"/><stop offset="0.965812" stop-color="#FEFEFE"/><stop offset="0.970085" stop-color="#FEFEFE"/><stop offset="0.974359" stop-color="#FEFEFE"/><stop offset="0.978632" stop-color="#FEFEFE"/><stop offset="0.982906" stop-color="#FEFEFE"/><stop offset="0.987179" stop-color="#FEFEFE"/><stop offset="0.991453" stop-color="#FEFEFE"/><stop offset="0.995726" stop-color="#FEFEFE"/><stop offset="1" stop-color="#FFFFFF"/></radialGradient><radialGradient cx="6096000" cy="180975" r="6105224" fx="6096000" gradientUnits="userSpaceOnUse" spreadMethod="pad" id="stroke2" gradientTransform="matrix(0.000104987 0 0 0.000104987 0.500053 682.5)"><stop offset="0" stop-color="#E0144C"/><stop offset="0.75" stop-color="#FFFFFF"/><stop offset="1" stop-color="#FFFFFF"/></radialGradient><linearGradient x1="953.26" y1="46.0062" x2="1214.39" y2="46.0062" gradientUnits="userSpaceOnUse" spreadMethod="reflect" id="fill3"><stop offset="0" stop-color="#00529C"/><stop offset="0.75" stop-color="#E0144C"/><stop offset="1" stop-color="#E0144C"/></linearGradient><linearGradient x1="953.26" y1="46.0062" x2="1214.39" y2="46.0062" gradientUnits="userSpaceOnUse" spreadMethod="reflect" id="fill4"><stop offset="0" stop-color="#00529C"/><stop offset="0.75" stop-color="#E0144C"/><stop offset="1" stop-color="#E0144C"/></linearGradient><linearGradient x1="953.26" y1="46.0062" x2="1214.39" y2="46.0062" gradientUnits="userSpaceOnUse" spreadMethod="reflect" id="fill5"><stop offset="0" stop-color="#00529C"/><stop offset="0.75" stop-color="#E0144C"/><stop offset="1" stop-color="#E0144C"/></linearGradient><linearGradient x1="953.26" y1="46.0062" x2="1214.39" y2="46.0062" gradientUnits="userSpaceOnUse" spreadMethod="reflect" id="fill6"><stop offset="0" stop-color="#00529C"/><stop offset="0.75" stop-color="#E0144C"/><stop offset="1" stop-color="#E0144C"/></linearGradient><linearGradient x1="1237.18" y1="40.2369" x2="1259.82" y2="-4.2368" gradientUnits="userSpaceOnUse" spreadMethod="reflect" id="fill7"><stop offset="0" stop-color="#00529C"/><stop offset="0.33" stop-color="#00529C"/><stop offset="0.68" stop-color="#E0144C"/><stop offset="1" stop-color="#E0144C"/></linearGradient><linearGradient x1="1229.03" y1="51.9737" x2="1266.97" y2="12.0263" gradientUnits="userSpaceOnUse" spreadMethod="reflect" id="fill8"><stop offset="0" stop-color="#00529C"/><stop offset="0.33" stop-color="#00529C"/><stop offset="0.89" stop-color="#E0144C"/><stop offset="1" stop-color="#E0144C"/></linearGradient></defs><g clip-path="url(#clip0)"><rect x="0" y="0" width="1280" height="720" fill="#08203E"/><path d="M920.5 0.500053 1280.5 0.500053 1280.5 54.5001 947.611 54.5001 920.5 27.5 920.5 27.0576 0.5 27.0576 0.5 0.50037 920.5 0.50037Z" stroke="url(#stroke1)" stroke-width="1.33333" stroke-miterlimit="8" fill="#FFFFFF" fill-rule="evenodd"/><path d="M360.5 720.5 0.500053 720.5 0.500053 682.5 333.389 682.5 360.5 701.5 360.5 701.811 1280.5 701.811 1280.5 720.5 360.5 720.5Z" stroke="url(#stroke2)" stroke-width="1.33333" stroke-miterlimit="8" fill="#FFFFFF" fill-rule="evenodd"/><text fill="#00529C" font-family="Franklin Gothic Heavy,Franklin Gothic Heavy_MSFontService,sans-serif" font-weight="700" font-size="32" transform="translate(953.26 31)">A U S T I N</text><text fill="#E0144C" font-family="Franklin Gothic Heavy,Franklin Gothic Heavy_MSFontService,sans-serif" font-weight="700" font-size="32" transform="translate(1109.43 31)">T E L</text><path d="M957.074 43.1418 956.991 43.4066 955.609 47.0839 958.545 47.0839 957.161 43.4355ZM1003.31 41.9335 1003.93 41.9335 1008.84 48.583 1008.99 48.8088 1008.97 48.4908 1008.97 41.9335 1009.78 41.9335 1009.78 50.4062 1009.2 50.4062 1004.26 43.7011 1004.12 43.4994 1004.12 50.4062 1003.31 50.4062ZM996.314 41.9335 997.123 41.9335 997.123 50.4062 996.314 50.4062ZM986.612 41.9335 992.171 41.9335 992.171 42.6894 989.793 42.6894 989.793 50.4062 988.99 50.4062 988.99 42.6894 986.612 42.6894ZM965.215 41.9335 966.017 41.9335 966.017 47.0457C966.017 48.8798 966.753 49.7968 968.226 49.7968 969.652 49.7968 970.365 48.9066 970.365 47.1262L970.365 41.9335 971.168 41.9335 971.168 46.9988C971.168 49.368 970.151 50.5527 968.116 50.5527 966.182 50.5527 965.215 49.4102 965.215 47.1252ZM956.743 41.9335 957.449 41.9335 960.56 50.4062 959.715 50.4062 958.773 47.8398 955.373 47.8398 954.431 50.4062 953.599 50.4062ZM979.71 41.7929C980.211 41.7929 980.743 41.887 981.304 42.0753L981.304 42.8704C980.72 42.6521 980.163 42.5429 979.635 42.5429 979.107 42.5429 978.691 42.6739 978.389 42.9359 978.087 43.198 977.935 43.5306 977.935 43.9337 977.935 44.3282 978.04 44.6419 978.25 44.8747 978.459 45.1075 978.93 45.4348 979.66 45.8566 980.448 46.3033 980.976 46.7046 981.243 47.0603 981.511 47.416 981.644 47.8263 981.644 48.2912 981.644 48.9577 981.413 49.5013 980.95 49.9218 980.486 50.3424 979.837 50.5527 979.002 50.5527 978.706 50.5527 978.368 50.5076 977.989 50.4175 977.61 50.3275 977.299 50.2112 977.056 50.0686L977.056 49.2339C977.749 49.6092 978.387 49.7968 978.968 49.7968 979.586 49.7968 980.049 49.6739 980.357 49.4281 980.664 49.1823 980.818 48.8379 980.818 48.3947 980.818 48.0038 980.713 47.691 980.504 47.4563 980.294 47.2216 979.82 46.8902 979.081 46.4622 978.232 45.9679 977.69 45.5477 977.455 45.2017 977.221 44.8558 977.103 44.4561 977.103 44.0026 977.103 43.3857 977.342 42.8632 977.818 42.4351 978.295 42.007 978.925 41.7929 979.71 41.7929Z" fill="url(#fill3)" fill-rule="evenodd"/><text fill="#000000" fill-opacity="0" font-family="Arial,Arial_MSFontService,sans-serif" font-size="8.75977" x="953.599" y="49.4577">AUSTIN</text><path d="M1045.21 43.1418 1045.12 43.4066 1043.74 47.0839 1046.68 47.0839 1045.29 43.4355ZM1023.26 42.6894 1023.26 45.9824 1024.55 45.9824C1025.15 45.9824 1025.63 45.8286 1025.97 45.521 1026.32 45.2134 1026.49 44.7896 1026.49 44.2497 1026.49 43.7608 1026.34 43.3785 1026.03 43.1028 1025.72 42.8272 1025.27 42.6894 1024.67 42.6894ZM1053.45 41.9335 1054.26 41.9335 1054.26 49.6562 1057.56 49.6562 1057.56 50.4062 1053.45 50.4062ZM1044.88 41.9335 1045.58 41.9335 1048.69 50.4062 1047.85 50.4062 1046.91 47.8398 1043.51 47.8398 1042.56 50.4062 1041.73 50.4062ZM1032.45 41.9335 1036.54 41.9335 1036.54 42.6894 1033.26 42.6894 1033.26 45.7597 1036.3 45.7597 1036.3 46.5097 1033.26 46.5097 1033.26 49.6562 1036.73 49.6562 1036.73 50.4062 1032.45 50.4062ZM1022.45 41.9335 1024.85 41.9335C1025.61 41.9335 1026.21 42.1416 1026.66 42.5576 1027.1 42.9737 1027.32 43.5186 1027.32 44.1924 1027.32 44.8131 1027.14 45.3334 1026.78 45.7535 1026.6 45.9635 1026.39 46.1345 1026.16 46.2665L1025.49 46.504 1025.84 46.8326C1026 47.0632 1026.16 47.3787 1026.33 47.7791L1027.55 50.4062 1026.71 50.4062 1025.58 47.9237C1025.36 47.4439 1025.15 47.1254 1024.94 46.9682 1024.73 46.811 1024.47 46.7324 1024.16 46.7324L1023.26 46.7324 1023.26 50.4062 1022.45 50.4062Z" fill="url(#fill4)" fill-rule="evenodd"/><text fill="#000000" fill-opacity="0" font-family="Arial,Arial_MSFontService,sans-serif" font-size="8.47266" x="1022.45" y="49.3471">REAL</text><path d="M1101.87 43.1418 1101.79 43.4066 1100.41 47.0839 1103.35 47.0839 1101.96 43.4355ZM1121.11 41.9335 1125.21 41.9335 1125.21 42.6894 1121.92 42.6894 1121.92 45.7597 1124.97 45.7597 1124.97 46.5097 1121.92 46.5097 1121.92 49.6562 1125.4 49.6562 1125.4 50.4062 1121.11 50.4062ZM1110.41 41.9335 1115.97 41.9335 1115.97 42.6894 1113.59 42.6894 1113.59 50.4062 1112.79 50.4062 1112.79 42.6894 1110.41 42.6894ZM1101.54 41.9335 1102.25 41.9335 1105.36 50.4062 1104.52 50.4062 1103.57 47.8398 1100.17 47.8398 1099.23 50.4062 1098.4 50.4062ZM1088.41 41.9335 1093.97 41.9335 1093.97 42.6894 1091.59 42.6894 1091.59 50.4062 1090.79 50.4062 1090.79 42.6894 1088.41 42.6894ZM1070.11 41.9335 1074.21 41.9335 1074.21 42.6894 1070.92 42.6894 1070.92 45.7597 1073.97 45.7597 1073.97 46.5097 1070.92 46.5097 1070.92 49.6562 1074.4 49.6562 1074.4 50.4062 1070.11 50.4062ZM1082.51 41.7929C1083.01 41.7929 1083.54 41.887 1084.1 42.0753L1084.1 42.8704C1083.52 42.6521 1082.96 42.5429 1082.43 42.5429 1081.91 42.5429 1081.49 42.6739 1081.19 42.9359 1080.89 43.198 1080.74 43.5306 1080.74 43.9337 1080.74 44.3282 1080.84 44.6419 1081.05 44.8747 1081.26 45.1075 1081.73 45.4348 1082.46 45.8566 1083.25 46.3033 1083.78 46.7046 1084.04 47.0603 1084.31 47.416 1084.44 47.8263 1084.44 48.2912 1084.44 48.9577 1084.21 49.5013 1083.75 49.9218 1083.29 50.3424 1082.64 50.5527 1081.8 50.5527 1081.51 50.5527 1081.17 50.5076 1080.79 50.4175 1080.41 50.3275 1080.1 50.2112 1079.86 50.0686L1079.86 49.2339C1080.55 49.6092 1081.19 49.7968 1081.77 49.7968 1082.39 49.7968 1082.85 49.6739 1083.16 49.4281 1083.46 49.1823 1083.62 48.8379 1083.62 48.3947 1083.62 48.0038 1083.51 47.691 1083.3 47.4563 1083.09 47.2216 1082.62 46.8902 1081.88 46.4622 1081.03 45.9679 1080.49 45.5477 1080.26 45.2017 1080.02 44.8558 1079.9 44.4561 1079.9 44.0026 1079.9 43.3857 1080.14 42.8632 1080.62 42.4351 1081.09 42.007 1081.73 41.7929 1082.51 41.7929Z" fill="url(#fill5)" fill-rule="evenodd"/><text fill="#000000" fill-opacity="0" font-family="Arial,Arial_MSFontService,sans-serif" font-size="8.75977" x="1070.11" y="49.4577">ESTATE</text><path d="M1194.71 41.9335 1200.27 41.9335 1200.27 42.6894 1197.89 42.6894 1197.89 50.4062 1197.09 50.4062 1197.09 42.6894 1194.71 42.6894ZM1184.41 41.9335 1185.22 41.9335 1185.22 45.7011 1189.7 45.7011 1189.7 41.9335 1190.5 41.9335 1190.5 50.4062 1189.7 50.4062 1189.7 46.4511 1185.22 46.4511 1185.22 50.4062 1184.41 50.4062ZM1165.41 41.9335 1166.22 41.9335 1166.22 50.4062 1165.41 50.4062ZM1143.41 41.9335 1144.03 41.9335 1148.94 48.583 1149.09 48.8088 1149.07 48.4908 1149.07 41.9335 1149.88 41.9335 1149.88 50.4062 1149.3 50.4062 1144.36 43.7011 1144.22 43.4994 1144.22 50.4062 1143.41 50.4062ZM1137.41 41.9335 1138.22 41.9335 1138.22 50.4062 1137.41 50.4062ZM1207.81 41.7929C1208.31 41.7929 1208.84 41.887 1209.4 42.0753L1209.4 42.8704C1208.82 42.6521 1208.26 42.5429 1207.73 42.5429 1207.21 42.5429 1206.79 42.6739 1206.49 42.9359 1206.19 43.198 1206.04 43.5306 1206.04 43.9337 1206.04 44.3282 1206.14 44.6419 1206.35 44.8747 1206.56 45.1075 1207.03 45.4348 1207.76 45.8566 1208.55 46.3033 1209.08 46.7046 1209.34 47.0603 1209.61 47.416 1209.74 47.8263 1209.74 48.2912 1209.74 48.9577 1209.51 49.5013 1209.05 49.9218 1208.59 50.3424 1207.94 50.5527 1207.1 50.5527 1206.81 50.5527 1206.47 50.5076 1206.09 50.4175 1205.71 50.3275 1205.4 50.2112 1205.16 50.0686L1205.16 49.2339C1205.85 49.6092 1206.49 49.7968 1207.07 49.7968 1207.69 49.7968 1208.15 49.6739 1208.46 49.4281 1208.76 49.1823 1208.92 48.8379 1208.92 48.3947 1208.92 48.0038 1208.81 47.691 1208.6 47.4563 1208.39 47.2216 1207.92 46.8902 1207.18 46.4622 1206.33 45.9679 1205.79 45.5477 1205.56 45.2017 1205.32 44.8558 1205.2 44.4561 1205.2 44.0026 1205.2 43.3857 1205.44 42.8632 1205.92 42.4351 1206.39 42.007 1207.03 41.7929 1207.81 41.7929ZM1176.22 41.7929C1176.95 41.7929 1177.7 41.9525 1178.45 42.2718L1178.45 43.0829C1177.6 42.7229 1176.83 42.5429 1176.14 42.5429 1175.14 42.5429 1174.33 42.885 1173.72 43.5693 1173.12 44.2535 1172.81 45.1319 1172.81 46.2044 1172.81 47.3353 1173.1 48.2168 1173.67 48.8488 1174.23 49.4808 1175 49.7968 1175.97 49.7968 1176.69 49.7968 1177.3 49.6525 1177.8 49.3638L1177.8 46.8261 1175.87 46.8261 1175.87 46.0761 1178.61 46.0761 1178.61 49.7837C1177.7 50.2964 1176.79 50.5527 1175.87 50.5527 1174.71 50.5527 1173.77 50.1599 1173.06 49.3743 1172.34 48.5886 1171.99 47.5608 1171.99 46.2906 1171.99 45.0118 1172.37 43.9425 1173.14 43.0827 1173.91 42.2228 1174.93 41.7929 1176.22 41.7929ZM1158.81 41.7929C1159.31 41.7929 1159.84 41.887 1160.4 42.0753L1160.4 42.8704C1159.82 42.6521 1159.26 42.5429 1158.73 42.5429 1158.21 42.5429 1157.79 42.6739 1157.49 42.9359 1157.19 43.198 1157.04 43.5306 1157.04 43.9337 1157.04 44.3282 1157.14 44.6419 1157.35 44.8747 1157.56 45.1075 1158.03 45.4348 1158.76 45.8566 1159.55 46.3033 1160.08 46.7046 1160.34 47.0603 1160.61 47.416 1160.74 47.8263 1160.74 48.2912 1160.74 48.9577 1160.51 49.5013 1160.05 49.9218 1159.59 50.3424 1158.94 50.5527 1158.1 50.5527 1157.81 50.5527 1157.47 50.5076 1157.09 50.4175 1156.71 50.3275 1156.4 50.2112 1156.16 50.0686L1156.16 49.2339C1156.85 49.6092 1157.49 49.7968 1158.07 49.7968 1158.69 49.7968 1159.15 49.6739 1159.46 49.4281 1159.76 49.1823 1159.92 48.8379 1159.92 48.3947 1159.92 48.0038 1159.81 47.691 1159.6 47.4563 1159.39 47.2216 1158.92 46.8902 1158.18 46.4622 1157.33 45.9679 1156.79 45.5477 1156.56 45.2017 1156.32 44.8558 1156.2 44.4561 1156.2 44.0026 1156.2 43.3857 1156.44 42.8632 1156.92 42.4351 1157.39 42.007 1158.03 41.7929 1158.81 41.7929Z" fill="url(#fill6)" fill-rule="evenodd"/><text fill="#000000" fill-opacity="0" font-family="Arial,Arial_MSFontService,sans-serif" font-size="8.75977" x="1137.41" y="49.4577">INSIGHTS</text><path d="M1248.5 4 1248.5 4 1221 29.5708 1223.95 32.0001 1248.5 9.24202 1248.5 9.24202 1273.05 32.0001 1276 29.5708Z" fill="url(#fill7)" fill-rule="evenodd"/><path d="M1248 13 1268 31.6083 1268 51 1258.88 51 1252 51 1244 51 1237.12 51 1228 51 1228 31.6083Z" fill="url(#fill8)" fill-rule="evenodd"/><g><g><g><path d="M18.125 15.775C17.725 15.375 17.125 15.175 16.575 15.3L15.45 14.2C16.45 12.9 17 11.3 17 9.65 17.025 5.475 13.65 2.1 9.5 2.075 5.35 2.05 1.975 5.425 1.95 9.575 1.925 13.725 5.3 17.1 9.45 17.125 11.1 17.125 12.725 16.575 14.05 15.575L15.15 16.675C15.05 17.25 15.225 17.825 15.625 18.25L18.75 21.375C19.425 22.05 20.55 22.05 21.225 21.375 21.9 20.7 21.9 19.575 21.225 18.9L18.125 15.775ZM9.5 15.625C6.175 15.625 3.5 12.95 3.5 9.625 3.5 6.3 6.175 3.625 9.5 3.625 12.825 3.625 15.5 6.3 15.5 9.625 15.5 12.925 12.8 15.625 9.5 15.625Z" fill="#FFFFFF" transform="matrix(1 0 0 1.04167 1239 22)"/><path d="M14.875 9.25 13.45 9.25C13.325 9.275 13.2 9.35 13.125 9.45L12.175 10.475 11.375 7.7C11.3 7.475 11.05 7.325 10.825 7.4 10.7 7.45 10.575 7.525 10.525 7.675L9.025 11.65 8 6.15C7.95 5.9 7.725 5.75 7.5 5.8 7.35 5.825 7.225 5.95 7.15 6.1L6.075 9.25 4.125 9.25 4.125 10.25 6.4 10.25C6.6 10.225 6.775 10.075 6.825 9.875L7.45 7.975 8.45 13.35C8.475 13.55 8.65 13.7 8.85 13.7L8.9 13.7C9.075 13.7 9.25 13.6 9.325 13.425L10.925 9.225 11.575 11.475C11.65 11.7 11.875 11.85 12.125 11.775 12.2 11.75 12.275 11.7 12.325 11.65L13.675 10.25 14.9 10.25 14.9 9.25Z" fill="#FFFFFF" transform="matrix(1 0 0 1.04167 1239 22)"/></g></g></g></g></svg>