<svg width="1280" height="720" xmlns="http://www.w3.org/2000/svg" xmlns:xlink="http://www.w3.org/1999/xlink" overflow="hidden"><defs><filter id="fx0" x="-10%" y="-10%" width="120%" height="120%" filterUnits="userSpaceOnUse" primitiveUnits="userSpaceOnUse"><feComponentTransfer color-interpolation-filters="sRGB"><feFuncR type="discrete" tableValues="0 0"/><feFuncG type="discrete" tableValues="0 0"/><feFuncB type="discrete" tableValues="0 0"/><feFuncA type="linear" slope="0.4" intercept="0"/></feComponentTransfer><feGaussianBlur stdDeviation="0.905448 0.905448"/></filter><filter id="fx1" x="-10%" y="-10%" width="120%" height="120%" filterUnits="userSpaceOnUse" primitiveUnits="userSpaceOnUse"><feComponentTransfer color-interpolation-filters="sRGB"><feFuncR type="discrete" tableValues="0 0"/><feFuncG type="discrete" tableValues="0 0"/><feFuncB type="discrete" tableValues="0 0"/><feFuncA type="linear" slope="0.4" intercept="0"/></feComponentTransfer><feGaussianBlur stdDeviation="0.905448 0.905448"/></filter><filter id="fx2" x="-10%" y="-10%" width="120%" height="120%" filterUnits="userSpaceOnUse" primitiveUnits="userSpaceOnUse"><feComponentTransfer color-interpolation-filters="sRGB"><feFuncR type="discrete" tableValues="0 0"/><feFuncG type="discrete" tableValues="0 0"/><feFuncB type="discrete" tableValues="0 0"/><feFuncA type="linear" slope="0.4" intercept="0"/></feComponentTransfer><feGaussianBlur stdDeviation="0.905448 0.905448"/></filter><filter id="fx3" x="-10%" y="-10%" width="120%" height="120%" filterUnits="userSpaceOnUse" primitiveUnits="userSpaceOnUse"><feComponentTransfer color-interpolation-filters="sRGB"><feFuncR type="discrete" tableValues="0 0"/><feFuncG type="discrete" tableValues="0 0"/><feFuncB type="discrete" tableValues="0 0"/><feFuncA type="linear" slope="0.4" intercept="0"/></feComponentTransfer><feGaussianBlur stdDeviation="0.905448 0.905448"/></filter><filter id="fx4" x="-10%" y="-10%" width="120%" height="120%" filterUnits="userSpaceOnUse" primitiveUnits="userSpaceOnUse"><feComponentTransfer color-interpolation-filters="sRGB"><feFuncR type="discrete" tableValues="0 0"/><feFuncG type="discrete" tableValues="0 0"/><feFuncB type="discrete" tableValues="0 0"/><feFuncA type="linear" slope="0.4" intercept="0"/></feComponentTransfer><feGaussianBlur stdDeviation="0.905448 0.905448"/></filter><clipPath id="clip5"><rect x="0" y="0" width="1280" height="720"/></clipPath><linearGradient x1="0" y1="27" x2="1280" y2="27" gradientUnits="userSpaceOnUse" spreadMethod="reflect" id="fill6"><stop offset="0" stop-color="#E7E6E6"/><stop offset="0.46" stop-color="#240046"/><stop offset="0.94406" stop-color="#D6DCE5"/><stop offset="1" stop-color="#D6DCE5"/></linearGradient><linearGradient x1="0" y1="703.5" x2="1280" y2="703.5" gradientUnits="userSpaceOnUse" spreadMethod="reflect" id="fill7"><stop offset="0" stop-color="#E7E6E6"/><stop offset="0.46" stop-color="#240046"/><stop offset="0.94406" stop-color="#D6DCE5"/><stop offset="1" stop-color="#D6DCE5"/></linearGradient><linearGradient x1="1280" y1="58.5" x2="0" y2="58.5" gradientUnits="userSpaceOnUse" spreadMethod="reflect" id="fill8"><stop offset="0" stop-color="#E7E6E6"/><stop offset="0.46" stop-color="#240046"/><stop offset="0.94406" stop-color="#D6DCE5"/><stop offset="1" stop-color="#D6DCE5"/></linearGradient><linearGradient x1="1280" y1="681.5" x2="0" y2="681.5" gradientUnits="userSpaceOnUse" spreadMethod="reflect" id="fill9"><stop offset="0" stop-color="#E7E6E6"/><stop offset="0.46" stop-color="#240046"/><stop offset="0.94406" stop-color="#D6DCE5"/><stop offset="1" stop-color="#D6DCE5"/></linearGradient><clipPath id="clip10"><rect x="23" y="15" width="123" height="39"/></clipPath><clipPath id="clip11"><rect x="23" y="15" width="118" height="31"/></clipPath><clipPath id="clip12"><rect x="2147483392" y="2147483648" width="0" height="0"/></clipPath><clipPath id="clip13"><rect x="23" y="15" width="126" height="31"/></clipPath><clipPath id="clip14"><rect x="2147483264" y="2147483648" width="0" height="0"/></clipPath><linearGradient x1="625" y1="133" x2="13" y2="133" gradientUnits="userSpaceOnUse" spreadMethod="reflect" id="fill15"><stop offset="0" stop-color="#D6DCE5"/><stop offset="0.46" stop-color="#240046"/><stop offset="1" stop-color="#240046"/></linearGradient></defs><g clip-path="url(#clip5)"><rect x="0" y="0" width="1280" height="720" fill="#FFFFFF"/><rect x="0" y="0" width="1280" height="54" fill="url(#fill6)"/><rect x="0" y="687" width="1280" height="33" fill="url(#fill7)"/><rect x="0" y="55" width="1280" height="7" fill="url(#fill8)"/><rect x="0" y="678" width="1280" height="7" fill="url(#fill9)"/><g clip-path="url(#clip10)" filter="url(#fx0)" transform="translate(58 -3)"><g><path d="M9.02214 0 9.02214-24.612 13.2201-24.612 13.2201 0ZM1.50651 0 1.50651-24.612 5.70443-24.612 5.70443 0ZM3.50391-10.1562 3.50391-14.1003 11.7474-14.1003 11.7474-10.1562ZM18.0521-10.4102 18.0521-14.4388 22.487-14.4388C23.0399-14.4388 23.4688-14.5827 23.7734-14.8704 24.0781-15.1582 24.2305-15.556 24.2305-16.0638L24.2305-18.806C24.2305-19.3702 24.0781-19.8103 23.7734-20.1263 23.4688-20.4423 23.0399-20.6003 22.487-20.6003L18.0521-20.6003 18.0521-24.6289 22.2331-24.6289C23.5647-24.6289 24.7016-24.4117 25.6439-23.9772 26.5862-23.5428 27.3056-22.908 27.8021-22.0729 28.2986-21.2378 28.5469-20.2279 28.5469-19.043L28.5469-16.1654C28.5469-14.9466 28.2986-13.9084 27.8021-13.0508 27.3056-12.1931 26.5862-11.5386 25.6439-11.0872 24.7016-10.6359 23.5647-10.4102 22.2331-10.4102ZM16.1732 0 16.1732-24.6289 20.2865-24.6289 20.2865 0ZM24.7383 0 21.4714-11.1719 25.3138-11.9505 29.2409 0ZM40.7188-10.4102 40.7188-14.4388 45.1536-14.4388C45.7066-14.4388 46.1354-14.5827 46.4401-14.8704 46.7448-15.1582 46.8971-15.556 46.8971-16.0638L46.8971-18.806C46.8971-19.3702 46.7448-19.8103 46.4401-20.1263 46.1354-20.4423 45.7066-20.6003 45.1536-20.6003L40.7188-20.6003 40.7188-24.6289 44.8997-24.6289C46.2313-24.6289 47.3683-24.4117 48.3106-23.9772 49.2528-23.5428 49.9722-22.908 50.4688-22.0729 50.9653-21.2378 51.2135-20.2279 51.2135-19.043L51.2135-16.1654C51.2135-14.9466 50.9653-13.9084 50.4688-13.0508 49.9722-12.1931 49.2528-11.5386 48.3106-11.0872 47.3683-10.6359 46.2313-10.4102 44.8997-10.4102ZM38.8398 0 38.8398-24.6289 42.9531-24.6289 42.9531 0ZM47.405 0 44.138-11.1719 47.9805-11.9505 51.9076 0ZM59.1888 0.253906C57.4397 0.253906 56.077-0.217231 55.1009-1.15951 54.1248-2.10178 53.6367-3.43056 53.6367-5.14583L53.6367-12.1536C53.6367-13.9818 54.1135-15.3924 55.0671-16.3854 56.0206-17.3785 57.3494-17.875 59.0534-17.875 60.8025-17.875 62.1567-17.3898 63.1159-16.4193 64.0751-15.4488 64.5547-14.072 64.5547-12.2891L64.5547-7.3125 57.0221-7.3125 57.0221-10.3763 60.4922-10.3763 60.4922-12.4753C60.4922-12.9944 60.3652-13.4006 60.1113-13.694 59.8574-13.9874 59.5048-14.1341 59.0534-14.1341 58.6359-14.1341 58.3086-13.9789 58.0716-13.6686 57.8346-13.3583 57.7161-12.921 57.7161-12.3568L57.7161-5.01042C57.7161-4.52517 57.8459-4.15278 58.1055-3.89323 58.365-3.63368 58.7261-3.50391 59.1888-3.50391 59.6289-3.50391 59.9674-3.61111 60.2044-3.82552 60.4414-4.03993 60.5599-4.34462 60.5599-4.73958L60.5599-5.34896 64.6055-5.3151 64.6055-4.82422C64.6055-3.2105 64.1315-1.96072 63.1836-1.07487 62.2357-0.189019 60.9041 0.253906 59.1888 0.253906ZM67.5091 7.14323 67.5091-17.5703 71.707-17.5703 71.707 7.14323ZM74.8893 0.253906C74.0881 0.253906 73.3913-0.0112847 72.7988-0.541667 72.2064-1.07205 71.7635-1.8112 71.4701-2.75911L71.707-5.23047C71.707-4.85807 71.7606-4.54774 71.8678-4.29948 71.975-4.05122 72.1302-3.8622 72.3333-3.73242 72.5365-3.60265 72.7847-3.53776 73.0781-3.53776 73.5069-3.53776 73.8286-3.69293 74.043-4.00326 74.2574-4.31359 74.3646-4.74523 74.3646-5.29818L74.3646-12.4076C74.3646-12.9379 74.2574-13.3498 74.043-13.6432 73.8286-13.9366 73.5069-14.0833 73.0781-14.0833 72.7847-14.0833 72.5365-14.0269 72.3333-13.9141 72.1302-13.8012 71.975-13.6263 71.8678-13.3893 71.7606-13.1523 71.707-12.8477 71.707-12.4753L71.3516-14.6589C71.7465-15.6745 72.2543-16.4644 72.875-17.0286 73.4957-17.5929 74.1897-17.875 74.957-17.875 76.0855-17.875 76.9544-17.4575 77.5638-16.6224 78.1732-15.7873 78.4779-14.5911 78.4779-13.0339L78.4779-4.6888C78.4779-3.12023 78.1647-1.9043 77.5384-1.04102 76.9121-0.177734 76.0291 0.253906 74.8893 0.253906ZM86.418 0.253906C84.7591 0.253906 83.4642-0.16645 82.5332-1.00716 81.6022-1.84787 81.1367-3.02431 81.1367-4.53646L81.1367-13.1693C81.1367-14.6701 81.6022-15.8296 82.5332-16.6478 83.4642-17.4659 84.7591-17.875 86.418-17.875 88.0655-17.875 89.352-17.4659 90.2773-16.6478 91.2027-15.8296 91.6654-14.6701 91.6654-13.1693L91.6654-4.48568C91.6654-2.98481 91.2027-1.81966 90.2773-0.990234 89.352-0.160807 88.0655 0.253906 86.418 0.253906ZM86.418-3.52083C86.7678-3.52083 87.0386-3.6365 87.2305-3.86784 87.4223-4.09918 87.5182-4.42361 87.5182-4.84115L87.5182-12.8477C87.5182-13.2426 87.4223-13.553 87.2305-13.7786 87.0386-14.0043 86.7678-14.1172 86.418-14.1172 86.0681-14.1172 85.7917-14.0043 85.5885-13.7786 85.3854-13.553 85.2839-13.2426 85.2839-12.8477L85.2839-4.84115C85.2839-4.42361 85.3854-4.09918 85.5885-3.86784 85.7917-3.6365 86.0681-3.52083 86.418-3.52083ZM94.6758 0 94.6758-17.5703 98.8737-17.5703 98.8737 0ZM103.089-13.4401C102.953-13.4401 102.798-13.4401 102.623-13.4401 102.448-13.4401 102.248-13.4401 102.022-13.4401 101.029-13.4401 100.256-13.1411 99.7031-12.543 99.1502-11.9449 98.8737-11.1324 98.8737-10.1055L98.5182-14.5065C99.0148-15.5447 99.658-16.3657 100.448-16.9694 101.238-17.5731 102.118-17.875 103.089-17.875 103.077-17.875 103.072-17.875 103.072-17.875 103.072-17.875 103.077-17.875 103.089-17.875ZM110.266 0.0846354C108.686 0.0846354 107.526-0.315972 106.787-1.11719 106.048-1.9184 105.678-3.06944 105.678-4.57031L105.678-22.6823 109.859-22.6823 109.859-5.2474C109.859-4.875 109.952-4.5816 110.139-4.36719 110.325-4.15278 110.582-4.04557 110.909-4.04557L112.111-4.04557 112.111 0.0846354ZM104.155-13.7279 104.155-17.5703 112.111-17.5703 112.111-13.7279ZM113.829 0 113.829-4.19792 118.027-4.19792 118.027 0ZM113.829-14.0664 113.829-18.2643 118.027-18.2643 118.027-14.0664Z" fill="#FFFFFF" transform="translate(24.6853 43)"/></g></g><path d="M9.02214 0 9.02214-24.612 13.2201-24.612 13.2201 0ZM1.50651 0 1.50651-24.612 5.70443-24.612 5.70443 0ZM3.50391-10.1562 3.50391-14.1003 11.7474-14.1003 11.7474-10.1562ZM18.0521-10.4102 18.0521-14.4388 22.487-14.4388C23.0399-14.4388 23.4688-14.5827 23.7734-14.8704 24.0781-15.1582 24.2305-15.556 24.2305-16.0638L24.2305-18.806C24.2305-19.3702 24.0781-19.8103 23.7734-20.1263 23.4688-20.4423 23.0399-20.6003 22.487-20.6003L18.0521-20.6003 18.0521-24.6289 22.2331-24.6289C23.5647-24.6289 24.7016-24.4117 25.6439-23.9772 26.5862-23.5428 27.3056-22.908 27.8021-22.0729 28.2986-21.2378 28.5469-20.2279 28.5469-19.043L28.5469-16.1654C28.5469-14.9466 28.2986-13.9084 27.8021-13.0508 27.3056-12.1931 26.5862-11.5386 25.6439-11.0872 24.7016-10.6359 23.5647-10.4102 22.2331-10.4102ZM16.1732 0 16.1732-24.6289 20.2865-24.6289 20.2865 0ZM24.7383 0 21.4714-11.1719 25.3138-11.9505 29.2409 0ZM40.7188-10.4102 40.7188-14.4388 45.1536-14.4388C45.7066-14.4388 46.1354-14.5827 46.4401-14.8704 46.7448-15.1582 46.8971-15.556 46.8971-16.0638L46.8971-18.806C46.8971-19.3702 46.7448-19.8103 46.4401-20.1263 46.1354-20.4423 45.7066-20.6003 45.1536-20.6003L40.7188-20.6003 40.7188-24.6289 44.8997-24.6289C46.2313-24.6289 47.3683-24.4117 48.3106-23.9772 49.2528-23.5428 49.9722-22.908 50.4688-22.0729 50.9653-21.2378 51.2135-20.2279 51.2135-19.043L51.2135-16.1654C51.2135-14.9466 50.9653-13.9084 50.4688-13.0508 49.9722-12.1931 49.2528-11.5386 48.3106-11.0872 47.3683-10.6359 46.2313-10.4102 44.8997-10.4102ZM38.8398 0 38.8398-24.6289 42.9531-24.6289 42.9531 0ZM47.405 0 44.138-11.1719 47.9805-11.9505 51.9076 0ZM59.1888 0.253906C57.4397 0.253906 56.077-0.217231 55.1009-1.15951 54.1248-2.10178 53.6367-3.43056 53.6367-5.14583L53.6367-12.1536C53.6367-13.9818 54.1135-15.3924 55.0671-16.3854 56.0206-17.3785 57.3494-17.875 59.0534-17.875 60.8025-17.875 62.1567-17.3898 63.1159-16.4193 64.0751-15.4488 64.5547-14.072 64.5547-12.2891L64.5547-7.3125 57.0221-7.3125 57.0221-10.3763 60.4922-10.3763 60.4922-12.4753C60.4922-12.9944 60.3652-13.4006 60.1113-13.694 59.8574-13.9874 59.5048-14.1341 59.0534-14.1341 58.6359-14.1341 58.3086-13.9789 58.0716-13.6686 57.8346-13.3583 57.7161-12.921 57.7161-12.3568L57.7161-5.01042C57.7161-4.52517 57.8459-4.15278 58.1055-3.89323 58.365-3.63368 58.7261-3.50391 59.1888-3.50391 59.6289-3.50391 59.9674-3.61111 60.2044-3.82552 60.4414-4.03993 60.5599-4.34462 60.5599-4.73958L60.5599-5.34896 64.6055-5.3151 64.6055-4.82422C64.6055-3.2105 64.1315-1.96072 63.1836-1.07487 62.2357-0.189019 60.9041 0.253906 59.1888 0.253906ZM67.5091 7.14323 67.5091-17.5703 71.707-17.5703 71.707 7.14323ZM74.8893 0.253906C74.0881 0.253906 73.3913-0.0112847 72.7988-0.541667 72.2064-1.07205 71.7635-1.8112 71.4701-2.75911L71.707-5.23047C71.707-4.85807 71.7606-4.54774 71.8678-4.29948 71.975-4.05122 72.1302-3.8622 72.3333-3.73242 72.5365-3.60265 72.7847-3.53776 73.0781-3.53776 73.5069-3.53776 73.8286-3.69293 74.043-4.00326 74.2574-4.31359 74.3646-4.74523 74.3646-5.29818L74.3646-12.4076C74.3646-12.9379 74.2574-13.3498 74.043-13.6432 73.8286-13.9366 73.5069-14.0833 73.0781-14.0833 72.7847-14.0833 72.5365-14.0269 72.3333-13.9141 72.1302-13.8012 71.975-13.6263 71.8678-13.3893 71.7606-13.1523 71.707-12.8477 71.707-12.4753L71.3516-14.6589C71.7465-15.6745 72.2543-16.4644 72.875-17.0286 73.4957-17.5929 74.1897-17.875 74.957-17.875 76.0855-17.875 76.9544-17.4575 77.5638-16.6224 78.1732-15.7873 78.4779-14.5911 78.4779-13.0339L78.4779-4.6888C78.4779-3.12023 78.1647-1.9043 77.5384-1.04102 76.9121-0.177734 76.0291 0.253906 74.8893 0.253906ZM86.418 0.253906C84.7591 0.253906 83.4642-0.16645 82.5332-1.00716 81.6022-1.84787 81.1367-3.02431 81.1367-4.53646L81.1367-13.1693C81.1367-14.6701 81.6022-15.8296 82.5332-16.6478 83.4642-17.4659 84.7591-17.875 86.418-17.875 88.0655-17.875 89.352-17.4659 90.2773-16.6478 91.2027-15.8296 91.6654-14.6701 91.6654-13.1693L91.6654-4.48568C91.6654-2.98481 91.2027-1.81966 90.2773-0.990234 89.352-0.160807 88.0655 0.253906 86.418 0.253906ZM86.418-3.52083C86.7678-3.52083 87.0386-3.6365 87.2305-3.86784 87.4223-4.09918 87.5182-4.42361 87.5182-4.84115L87.5182-12.8477C87.5182-13.2426 87.4223-13.553 87.2305-13.7786 87.0386-14.0043 86.7678-14.1172 86.418-14.1172 86.0681-14.1172 85.7917-14.0043 85.5885-13.7786 85.3854-13.553 85.2839-13.2426 85.2839-12.8477L85.2839-4.84115C85.2839-4.42361 85.3854-4.09918 85.5885-3.86784 85.7917-3.6365 86.0681-3.52083 86.418-3.52083ZM94.6758 0 94.6758-17.5703 98.8737-17.5703 98.8737 0ZM103.089-13.4401C102.953-13.4401 102.798-13.4401 102.623-13.4401 102.448-13.4401 102.248-13.4401 102.022-13.4401 101.029-13.4401 100.256-13.1411 99.7031-12.543 99.1502-11.9449 98.8737-11.1324 98.8737-10.1055L98.5182-14.5065C99.0148-15.5447 99.658-16.3657 100.448-16.9694 101.238-17.5731 102.118-17.875 103.089-17.875 103.077-17.875 103.072-17.875 103.072-17.875 103.072-17.875 103.077-17.875 103.089-17.875ZM110.266 0.0846354C108.686 0.0846354 107.526-0.315972 106.787-1.11719 106.048-1.9184 105.678-3.06944 105.678-4.57031L105.678-22.6823 109.859-22.6823 109.859-5.2474C109.859-4.875 109.952-4.5816 110.139-4.36719 110.325-4.15278 110.582-4.04557 110.909-4.04557L112.111-4.04557 112.111 0.0846354ZM104.155-13.7279 104.155-17.5703 112.111-17.5703 112.111-13.7279ZM113.829 0 113.829-4.19792 118.027-4.19792 118.027 0ZM113.829-14.0664 113.829-18.2643 118.027-18.2643 118.027-14.0664Z" fill="#FFFFFF" transform="translate(81.2072 38)"/><text fill="#000000" fill-opacity="0" font-family="Arial,Arial_MSFontService,sans-serif" font-size="31.7721" x="1.50651" y="3.17171">HR Report:</text><g clip-path="url(#clip11)" filter="url(#fx1)" transform="translate(184 -3)"><g><path d="M1.50651 0 1.50651-24.612 5.70443-24.612 5.70443 0ZM3.36849 0 3.36849-4.09635 12.4414-4.09635 12.4414 0ZM3.36849-10.1901 3.36849-14.2695 11.5951-14.2695 11.5951-10.1901ZM3.36849-20.5156 3.36849-24.612 12.4414-24.612 12.4414-20.5156ZM22.7812-11.2396 26.9622-24.612 30.8893-24.612 30.8893 0 27.1484 0 27.1484-17.181 27.4023-16.0977 23.8307-4.35026 21.7318-4.35026 18.1602-15.7591 18.4987-17.181 18.4987 0 14.6732 0 14.6732-24.612 18.7018-24.612ZM35.8034-9.54688 35.8034-13.5755 40.1536-13.5755C40.6727-13.5755 41.079-13.7533 41.3724-14.1087 41.6658-14.4642 41.8125-14.9579 41.8125-15.5898L41.8125-18.4844C41.8125-19.1502 41.6714-19.6665 41.3893-20.0332 41.1072-20.4 40.6953-20.5833 40.1536-20.5833L35.8034-20.5833 35.8034-24.612 40.2721-24.612C41.4909-24.612 42.5319-24.3976 43.3952-23.9688 44.2585-23.5399 44.9186-22.9136 45.3757-22.0898 45.8327-21.2661 46.0612-20.2674 46.0612-19.0938L46.0612-14.9466C46.0612-13.8069 45.8299-12.8336 45.3672-12.0267 44.9045-11.2198 44.2444-10.6048 43.3867-10.1816 42.5291-9.75846 41.4909-9.54688 40.2721-9.54688ZM33.8398 0 33.8398-24.612 38.0378-24.612 38.0378 0ZM48.6732 0 48.6732-24.612 52.8711-24.612 52.8711 0ZM50.3997 0 50.3997-4.02865 59.2695-4.02865 59.2695 0ZM67.1367 0.253906C65.8164 0.253906 64.6851 0.0253906 63.7428-0.431641 62.8006-0.888672 62.0812-1.54883 61.5846-2.41211 61.0881-3.27539 60.8399-4.31641 60.8399-5.53516L60.8399-19.0768C60.8399-20.3069 61.0881-21.3535 61.5846-22.2168 62.0812-23.0801 62.8006-23.7374 63.7428-24.1888 64.6851-24.6402 65.8164-24.8659 67.1367-24.8659 68.457-24.8659 69.5883-24.6402 70.5306-24.1888 71.4729-23.7374 72.1923-23.0801 72.6888-22.2168 73.1853-21.3535 73.4336-20.3069 73.4336-19.0768L73.4336-5.53516C73.4336-4.31641 73.1853-3.27539 72.6888-2.41211 72.1923-1.54883 71.4729-0.888672 70.5306-0.431641 69.5883 0.0253906 68.457 0.253906 67.1367 0.253906ZM67.1367-3.94401C67.7912-3.94401 68.2962-4.12739 68.6517-4.49414 69.0072-4.86089 69.1849-5.38845 69.1849-6.07682L69.1849-18.569C69.1849-19.2348 69.01-19.7539 68.6602-20.1263 68.3103-20.4987 67.8025-20.6849 67.1367-20.6849 66.4935-20.6849 65.9941-20.4987 65.6387-20.1263 65.2832-19.7539 65.1055-19.2348 65.1055-18.569L65.1055-6.07682C65.1055-5.38845 65.2832-4.86089 65.6387-4.49414 65.9941-4.12739 66.4935-3.94401 67.1367-3.94401ZM87.7122-24.612 83.2774-9.42839 83.2774 0 79.0794 0 79.0794-9.42839 74.4753-24.612 78.8425-24.612 81.1445-14.4219 83.3451-24.612ZM88.8399 0 88.8399-24.612 93.0378-24.612 93.0378 0ZM90.7018 0 90.7018-4.09635 99.7747-4.09635 99.7747 0ZM90.7018-10.1901 90.7018-14.2695 98.9284-14.2695 98.9284-10.1901ZM90.7018-20.5156 90.7018-24.612 99.7747-24.612 99.7747-20.5156ZM102.007 0 102.007-24.612 106.204-24.612 106.204 0ZM103.868 0 103.868-4.09635 112.941-4.09635 112.941 0ZM103.868-10.1901 103.868-14.2695 112.095-14.2695 112.095-10.1901ZM103.868-20.5156 103.868-24.612 112.941-24.612 112.941-20.5156Z" fill="#EAD3FF" transform="translate(24.5186 43)"/></g></g><path d="M1.50651 0 1.50651-24.612 5.70443-24.612 5.70443 0ZM3.36849 0 3.36849-4.09635 12.4414-4.09635 12.4414 0ZM3.36849-10.1901 3.36849-14.2695 11.5951-14.2695 11.5951-10.1901ZM3.36849-20.5156 3.36849-24.612 12.4414-24.612 12.4414-20.5156ZM22.7812-11.2396 26.9622-24.612 30.8893-24.612 30.8893 0 27.1484 0 27.1484-17.181 27.4023-16.0977 23.8307-4.35026 21.7318-4.35026 18.1602-15.7591 18.4987-17.181 18.4987 0 14.6732 0 14.6732-24.612 18.7018-24.612ZM35.8034-9.54688 35.8034-13.5755 40.1536-13.5755C40.6727-13.5755 41.079-13.7533 41.3724-14.1087 41.6658-14.4642 41.8125-14.9579 41.8125-15.5898L41.8125-18.4844C41.8125-19.1502 41.6714-19.6665 41.3893-20.0332 41.1072-20.4 40.6953-20.5833 40.1536-20.5833L35.8034-20.5833 35.8034-24.612 40.2721-24.612C41.4909-24.612 42.5319-24.3976 43.3952-23.9688 44.2585-23.5399 44.9186-22.9136 45.3757-22.0898 45.8327-21.2661 46.0612-20.2674 46.0612-19.0938L46.0612-14.9466C46.0612-13.8069 45.8299-12.8336 45.3672-12.0267 44.9045-11.2198 44.2444-10.6048 43.3867-10.1816 42.5291-9.75846 41.4909-9.54688 40.2721-9.54688ZM33.8398 0 33.8398-24.612 38.0378-24.612 38.0378 0ZM48.6732 0 48.6732-24.612 52.8711-24.612 52.8711 0ZM50.3997 0 50.3997-4.02865 59.2695-4.02865 59.2695 0ZM67.1367 0.253906C65.8164 0.253906 64.6851 0.0253906 63.7428-0.431641 62.8006-0.888672 62.0812-1.54883 61.5846-2.41211 61.0881-3.27539 60.8399-4.31641 60.8399-5.53516L60.8399-19.0768C60.8399-20.3069 61.0881-21.3535 61.5846-22.2168 62.0812-23.0801 62.8006-23.7374 63.7428-24.1888 64.6851-24.6402 65.8164-24.8659 67.1367-24.8659 68.457-24.8659 69.5883-24.6402 70.5306-24.1888 71.4729-23.7374 72.1923-23.0801 72.6888-22.2168 73.1853-21.3535 73.4336-20.3069 73.4336-19.0768L73.4336-5.53516C73.4336-4.31641 73.1853-3.27539 72.6888-2.41211 72.1923-1.54883 71.4729-0.888672 70.5306-0.431641 69.5883 0.0253906 68.457 0.253906 67.1367 0.253906ZM67.1367-3.94401C67.7912-3.94401 68.2962-4.12739 68.6517-4.49414 69.0072-4.86089 69.1849-5.38845 69.1849-6.07682L69.1849-18.569C69.1849-19.2348 69.01-19.7539 68.6602-20.1263 68.3103-20.4987 67.8025-20.6849 67.1367-20.6849 66.4935-20.6849 65.9941-20.4987 65.6387-20.1263 65.2832-19.7539 65.1055-19.2348 65.1055-18.569L65.1055-6.07682C65.1055-5.38845 65.2832-4.86089 65.6387-4.49414 65.9941-4.12739 66.4935-3.94401 67.1367-3.94401ZM87.7122-24.612 83.2774-9.42839 83.2774 0 79.0794 0 79.0794-9.42839 74.4753-24.612 78.8425-24.612 81.1445-14.4219 83.3451-24.612ZM88.8399 0 88.8399-24.612 93.0378-24.612 93.0378 0ZM90.7018 0 90.7018-4.09635 99.7747-4.09635 99.7747 0ZM90.7018-10.1901 90.7018-14.2695 98.9284-14.2695 98.9284-10.1901ZM90.7018-20.5156 90.7018-24.612 99.7747-24.612 99.7747-20.5156ZM102.007 0 102.007-24.612 106.204-24.612 106.204 0ZM103.868 0 103.868-4.09635 112.941-4.09635 112.941 0ZM103.868-10.1901 103.868-14.2695 112.095-14.2695 112.095-10.1901ZM103.868-20.5156 103.868-24.612 112.941-24.612 112.941-20.5156Z" fill="#EAD3FF" transform="translate(207.041 38)"/><text fill="#000000" fill-opacity="0" font-family="Arial,Arial_MSFontService,sans-serif" font-size="25.1198" x="1.50651" y="-2.88607">EMPLOYEE</text><g clip-path="url(#clip12)" filter="url(#fx2)" transform="translate(297 -3)"><g><path d="" fill="#FFFFFF" transform="translate(25.1853 43)"/></g></g><path d="" fill="#FFFFFF" transform="translate(320.707 38)"/><text fill="#000000" fill-opacity="0" font-family="Arial,Arial_MSFontService,sans-serif" font-size="0"></text><g clip-path="url(#clip13)" filter="url(#fx3)" transform="translate(304 -3)"><g><path d="M3.38542-10.4102 3.38542-14.4388 7.82031-14.4388C8.37326-14.4388 8.80208-14.5827 9.10677-14.8704 9.41146-15.1582 9.5638-15.556 9.5638-16.0638L9.5638-18.806C9.5638-19.3702 9.41146-19.8103 9.10677-20.1263 8.80208-20.4423 8.37326-20.6003 7.82031-20.6003L3.38542-20.6003 3.38542-24.6289 7.56641-24.6289C8.898-24.6289 10.0349-24.4117 10.9772-23.9772 11.9195-23.5428 12.6389-22.908 13.1354-22.0729 13.6319-21.2378 13.8802-20.2279 13.8802-19.043L13.8802-16.1654C13.8802-14.9466 13.6319-13.9084 13.1354-13.0508 12.6389-12.1931 11.9195-11.5386 10.9772-11.0872 10.0349-10.6359 8.898-10.4102 7.56641-10.4102ZM1.50651 0 1.50651-24.6289 5.61979-24.6289 5.61979 0ZM10.0716 0 6.80469-11.1719 10.6471-11.9505 14.5742 0ZM17.1732 0 17.1732-24.612 21.3711-24.612 21.3711 0ZM19.0352 0 19.0352-4.09635 28.1081-4.09635 28.1081 0ZM19.0352-10.1901 19.0352-14.2695 27.2617-14.2695 27.2617-10.1901ZM19.0352-20.5156 19.0352-24.612 28.1081-24.612 28.1081-20.5156ZM33.3763 0 33.3763-22.5469 37.5742-22.5469 37.5742 0ZM29.3138-20.5833 29.3138-24.612 41.6367-24.612 41.6367-20.5833ZM43.6732 0 43.6732-24.612 47.8711-24.612 47.8711 0ZM45.5352 0 45.5352-4.09635 54.6081-4.09635 54.6081 0ZM45.5352-10.1901 45.5352-14.2695 53.7617-14.2695 53.7617-10.1901ZM45.5352-20.5156 45.5352-24.612 54.6081-24.612 54.6081-20.5156ZM56.8398-0.0169271 56.8398-24.612 60.1406-24.612 65.9297-8.17578 65.4727-7.53255 65.4727-24.612 69.2982-24.612 69.2982-0.0169271 65.9635-0.0169271 60.2422-15.5052 60.6823-16.1654 60.6823-0.0169271ZM76.043 0 76.043-22.5469 80.2409-22.5469 80.2409 0ZM71.9805-20.5833 71.9805-24.612 84.3034-24.612 84.3034-20.5833ZM90.1992-24.612 90.1992 0 86.0013 0 86.0013-24.612ZM99.1367 0.253906C97.8164 0.253906 96.6851 0.0253906 95.7428-0.431641 94.8006-0.888672 94.0812-1.54883 93.5846-2.41211 93.0881-3.27539 92.8398-4.31641 92.8398-5.53516L92.8398-19.0768C92.8398-20.3069 93.0881-21.3535 93.5846-22.2168 94.0812-23.0801 94.8006-23.7374 95.7428-24.1888 96.6851-24.6402 97.8164-24.8659 99.1367-24.8659 100.457-24.8659 101.588-24.6402 102.531-24.1888 103.473-23.7374 104.192-23.0801 104.689-22.2168 105.185-21.3535 105.434-20.3069 105.434-19.0768L105.434-5.53516C105.434-4.31641 105.185-3.27539 104.689-2.41211 104.192-1.54883 103.473-0.888672 102.531-0.431641 101.588 0.0253906 100.457 0.253906 99.1367 0.253906ZM99.1367-3.94401C99.7912-3.94401 100.296-4.12739 100.652-4.49414 101.007-4.86089 101.185-5.38845 101.185-6.07682L101.185-18.569C101.185-19.2348 101.01-19.7539 100.66-20.1263 100.31-20.4987 99.8025-20.6849 99.1367-20.6849 98.4935-20.6849 97.9941-20.4987 97.6387-20.1263 97.2832-19.7539 97.1055-19.2348 97.1055-18.569L97.1055-6.07682C97.1055-5.38845 97.2832-4.86089 97.6387-4.49414 97.9941-4.12739 98.4935-3.94401 99.1367-3.94401ZM108.173-0.0169271 108.173-24.612 111.474-24.612 117.263-8.17578 116.806-7.53255 116.806-24.612 120.632-24.612 120.632-0.0169271 117.297-0.0169271 111.576-15.5052 112.016-16.1654 112.016-0.0169271Z" fill="#EAD3FF" transform="translate(25.1853 43)"/></g></g><path d="M3.38542-10.4102 3.38542-14.4388 7.82031-14.4388C8.37326-14.4388 8.80208-14.5827 9.10677-14.8704 9.41146-15.1582 9.5638-15.556 9.5638-16.0638L9.5638-18.806C9.5638-19.3702 9.41146-19.8103 9.10677-20.1263 8.80208-20.4423 8.37326-20.6003 7.82031-20.6003L3.38542-20.6003 3.38542-24.6289 7.56641-24.6289C8.898-24.6289 10.0349-24.4117 10.9772-23.9772 11.9195-23.5428 12.6389-22.908 13.1354-22.0729 13.6319-21.2378 13.8802-20.2279 13.8802-19.043L13.8802-16.1654C13.8802-14.9466 13.6319-13.9084 13.1354-13.0508 12.6389-12.1931 11.9195-11.5386 10.9772-11.0872 10.0349-10.6359 8.898-10.4102 7.56641-10.4102ZM1.50651 0 1.50651-24.6289 5.61979-24.6289 5.61979 0ZM10.0716 0 6.80469-11.1719 10.6471-11.9505 14.5742 0ZM17.1732 0 17.1732-24.612 21.3711-24.612 21.3711 0ZM19.0352 0 19.0352-4.09635 28.1081-4.09635 28.1081 0ZM19.0352-10.1901 19.0352-14.2695 27.2617-14.2695 27.2617-10.1901ZM19.0352-20.5156 19.0352-24.612 28.1081-24.612 28.1081-20.5156ZM33.3763 0 33.3763-22.5469 37.5742-22.5469 37.5742 0ZM29.3138-20.5833 29.3138-24.612 41.6367-24.612 41.6367-20.5833ZM43.6732 0 43.6732-24.612 47.8711-24.612 47.8711 0ZM45.5352 0 45.5352-4.09635 54.6081-4.09635 54.6081 0ZM45.5352-10.1901 45.5352-14.2695 53.7617-14.2695 53.7617-10.1901ZM45.5352-20.5156 45.5352-24.612 54.6081-24.612 54.6081-20.5156ZM56.8398-0.0169271 56.8398-24.612 60.1406-24.612 65.9297-8.17578 65.4727-7.53255 65.4727-24.612 69.2982-24.612 69.2982-0.0169271 65.9635-0.0169271 60.2422-15.5052 60.6823-16.1654 60.6823-0.0169271ZM76.043 0 76.043-22.5469 80.2409-22.5469 80.2409 0ZM71.9805-20.5833 71.9805-24.612 84.3034-24.612 84.3034-20.5833ZM90.1992-24.612 90.1992 0 86.0013 0 86.0013-24.612ZM99.1367 0.253906C97.8164 0.253906 96.6851 0.0253906 95.7428-0.431641 94.8006-0.888672 94.0812-1.54883 93.5846-2.41211 93.0881-3.27539 92.8398-4.31641 92.8398-5.53516L92.8398-19.0768C92.8398-20.3069 93.0881-21.3535 93.5846-22.2168 94.0812-23.0801 94.8006-23.7374 95.7428-24.1888 96.6851-24.6402 97.8164-24.8659 99.1367-24.8659 100.457-24.8659 101.588-24.6402 102.531-24.1888 103.473-23.7374 104.192-23.0801 104.689-22.2168 105.185-21.3535 105.434-20.3069 105.434-19.0768L105.434-5.53516C105.434-4.31641 105.185-3.27539 104.689-2.41211 104.192-1.54883 103.473-0.888672 102.531-0.431641 101.588 0.0253906 100.457 0.253906 99.1367 0.253906ZM99.1367-3.94401C99.7912-3.94401 100.296-4.12739 100.652-4.49414 101.007-4.86089 101.185-5.38845 101.185-6.07682L101.185-18.569C101.185-19.2348 101.01-19.7539 100.66-20.1263 100.31-20.4987 99.8025-20.6849 99.1367-20.6849 98.4935-20.6849 97.9941-20.4987 97.6387-20.1263 97.2832-19.7539 97.1055-19.2348 97.1055-18.569L97.1055-6.07682C97.1055-5.38845 97.2832-4.86089 97.6387-4.49414 97.9941-4.12739 98.4935-3.94401 99.1367-3.94401ZM108.173-0.0169271 108.173-24.612 111.474-24.612 117.263-8.17578 116.806-7.53255 116.806-24.612 120.632-24.612 120.632-0.0169271 117.297-0.0169271 111.576-15.5052 112.016-16.1654 112.016-0.0169271Z" fill="#EAD3FF" transform="translate(327.707 38)"/><text fill="#000000" fill-opacity="0" font-family="Arial,Arial_MSFontService,sans-serif" font-size="25.1198" x="1.50651" y="-2.88607">RETENTION</text><g clip-path="url(#clip14)" filter="url(#fx4)" transform="translate(426 -3)"><g><path d="" fill="#EAD3FF" transform="translate(25.352 43)"/></g></g><text fill="#EAD3FF" font-family="Bahnschrift Condensed,Bahnschrift Condensed_MSFontService,sans-serif" font-weight="700" font-stretch="condensed" font-size="34.6667" transform="translate(449.874 38)"></text><path d="M64 15.0001C64 16.6568 62.8807 18 61.5 18 60.1193 18 59 16.6568 59 15.0001 59 13.3432 60.1193 12 61.5 12 62.8807 12 64 13.3432 64 15.0001Z" fill="#8C25ED" fill-rule="evenodd"/><path d="M31 15.0001C31 16.6568 29.6568 18 28.0001 18 26.3432 18 25 16.6568 25 15.0001 25 13.3432 26.3432 12 28.0001 12 29.6568 12 31 13.3432 31 15.0001Z" fill="#8C25ED" fill-rule="evenodd"/><path d="M53 15.0001C53 16.6568 51.8807 18 50.5 18 49.1193 18 48 16.6568 48 15.0001 48 13.3432 49.1193 12 50.5 12 51.8807 12 53 13.3432 53 15.0001Z" fill="#8C25ED" fill-rule="evenodd"/><path d="M42 15.0001C42 16.6568 40.6568 18 39.0001 18 37.3432 18 36 16.6568 36 15.0001 36 13.3432 37.3432 12 39.0001 12 40.6568 12 42 13.3432 42 15.0001Z" fill="#8C25ED" fill-rule="evenodd"/><path d="M67.9755 28.2778 66.1832 20.1667C66.1272 19.9445 66.0152 19.7223 65.7911 19.5555 65.119 19.0556 64.3909 18.6112 63.5507 18.3889 62.8226 18.1667 62.0944 18 61.3103 18 60.5262 18 59.742 18.1111 59.0699 18.3889 58.2298 18.6667 57.5016 19.0556 56.8294 19.5555 56.6054 19.7223 56.4934 19.9445 56.4374 20.1667L55.7092 23.4445 55.7092 23.4445 54.9812 20.1667C54.9252 19.9445 54.8131 19.7223 54.589 19.5555 53.917 19.0556 53.1888 18.6112 52.3486 18.3889 51.6205 18.1667 50.8924 18 50.1082 18 49.3241 18 48.5399 18.1111 47.8678 18.3889 47.0277 18.6667 46.2995 19.0556 45.6274 19.5555 45.4033 19.7223 45.2913 19.9445 45.2353 20.1667L44.5071 23.3889 44.5071 23.4445 43.7791 20.1667C43.7231 19.9445 43.6111 19.7223 43.3869 19.5555 42.7149 19.0556 41.9867 18.6112 41.1465 18.3889 40.4185 18.1667 39.6903 18 38.9061 18 38.122 18 37.3379 18.1111 36.6657 18.3889 35.8256 18.6667 35.0974 19.0556 34.4253 19.5555 34.2012 19.7223 34.0892 19.9445 34.0332 20.1667L33.3051 23.3889 33.3051 23.3889 32.577 20.1667C32.521 19.9445 32.409 19.7223 32.1849 19.5555 31.5128 19.0556 30.7846 18.6112 29.9444 18.3889 29.2164 18.1667 28.4882 18 27.704 18 26.9199 18 26.1358 18.1111 25.4636 18.3889 24.6235 18.6667 23.8954 19.0556 23.2232 19.5555 22.9992 19.7223 22.8872 19.9445 22.8311 20.1667L21.0388 28.2222C20.8708 28.8334 21.2629 29.5 21.935 29.6111 21.991 29.6111 22.047 29.6111 22.103 29.6111 22.6071 29.6111 23.0552 29.2778 23.2232 28.7223L24.9035 21.3333 24.9035 25.2778 23.2232 33.5556 24.9035 33.5556 24.9035 43.0001 27.144 43.0001 27.144 33.5556 28.2642 33.5556 28.2642 43.0001 30.5046 43.0001 30.5046 33.5556 32.1849 33.5556 30.5046 25.2778 30.5046 21.3333 32.1849 28.7778C32.2969 29.2778 32.745 29.6667 33.2491 29.6667L33.2491 29.6667C33.7532 29.6667 34.2012 29.3333 34.3133 28.7778L36.1056 21.3333 36.1056 30.2222 36.1056 43.0001 38.3461 43.0001 38.3461 30.2222 39.4663 30.2222 39.4663 43.0001 41.7067 43.0001 41.7067 30.2222 41.7067 21.3333 43.3869 28.7778C43.4989 29.2778 43.9471 29.6667 44.5071 29.6667 44.5071 29.6667 44.5071 29.6667 44.5071 29.6667L44.5071 29.6667C45.0113 29.6667 45.4593 29.3333 45.5714 28.7778L47.3077 21.3333 47.3077 25.3334 45.6274 33.5556 47.3077 33.5556 47.3077 43.0001 49.5481 43.0001 49.5481 33.5556 50.6683 33.5556 50.6683 43.0001 52.9088 43.0001 52.9088 33.5556 54.589 33.5556 52.9088 25.2223 52.9088 21.3333 54.589 28.7778C54.701 29.2778 55.1492 29.6667 55.7092 29.6667 55.7092 29.6667 55.7092 29.6667 55.7092 29.6667L55.7092 29.6667C55.7092 29.6667 55.7092 29.6667 55.7092 29.6667 56.2134 29.6667 56.6614 29.3333 56.8294 28.7778L58.5098 21.3333 58.5098 30.2222 58.5098 43.0001 60.7502 43.0001 60.7502 30.2222 61.8704 30.2222 61.8704 43.0001 64.1108 43.0001 64.1108 30.2222 64.1108 21.3333 65.7911 28.7778C65.9031 29.2778 66.3513 29.6667 66.9113 29.6667 67.0233 29.6667 67.1914 29.6667 67.3035 29.6111 67.8075 29.3889 68.0875 28.8334 67.9755 28.2778Z" fill="#10002B" fill-rule="evenodd"/><path d="M640 650.691 640 87.3087C640 73.8834 650.883 63 664.309 63L1280 63 1280 675 664.309 675C650.883 675 640 664.117 640 650.691Z" fill="#F2F2F2" fill-rule="evenodd"/><path d="M13 89.1492C13 78.5734 21.5733 70 32.1491 70L605.851 70C616.427 70 625 78.5734 625 89.1492L625 176.851C625 187.427 616.427 196 605.851 196L32.1491 196C21.5733 196 13 187.427 13 176.851Z" fill="url(#fill15)" fill-rule="evenodd"/></g></svg>