<svg width="1280" height="720" xmlns="http://www.w3.org/2000/svg" xmlns:xlink="http://www.w3.org/1999/xlink" overflow="hidden"><defs><filter id="fx0" x="-10%" y="-10%" width="120%" height="120%" filterUnits="userSpaceOnUse" primitiveUnits="userSpaceOnUse"><feComponentTransfer color-interpolation-filters="sRGB"><feFuncR type="discrete" tableValues="0 0"/><feFuncG type="discrete" tableValues="0 0"/><feFuncB type="discrete" tableValues="0 0"/><feFuncA type="linear" slope="0.4" intercept="0"/></feComponentTransfer><feGaussianBlur stdDeviation="1.02744 1.02744"/></filter><filter id="fx1" x="-10%" y="-10%" width="120%" height="120%" filterUnits="userSpaceOnUse" primitiveUnits="userSpaceOnUse"><feComponentTransfer color-interpolation-filters="sRGB"><feFuncR type="discrete" tableValues="0 0"/><feFuncG type="discrete" tableValues="0 0"/><feFuncB type="discrete" tableValues="0 0"/><feFuncA type="linear" slope="0.4" intercept="0"/></feComponentTransfer><feGaussianBlur stdDeviation="1.02744 1.02744"/></filter><filter id="fx2" x="-10%" y="-10%" width="120%" height="120%" filterUnits="userSpaceOnUse" primitiveUnits="userSpaceOnUse"><feComponentTransfer color-interpolation-filters="sRGB"><feFuncR type="discrete" tableValues="0 0"/><feFuncG type="discrete" tableValues="0 0"/><feFuncB type="discrete" tableValues="0 0"/><feFuncA type="linear" slope="0.4" intercept="0"/></feComponentTransfer><feGaussianBlur stdDeviation="1.02744 1.02744"/></filter><clipPath id="clip3"><rect x="0" y="0" width="1280" height="720"/></clipPath><linearGradient x1="0" y1="343.5" x2="1280" y2="343.5" gradientUnits="userSpaceOnUse" spreadMethod="reflect" id="fill4"><stop offset="0" stop-color="#240046"/><stop offset="0.94406" stop-color="#D6DCE5"/><stop offset="1" stop-color="#D6DCE5"/></linearGradient><linearGradient x1="0" y1="703.5" x2="1280" y2="703.5" gradientUnits="userSpaceOnUse" spreadMethod="reflect" id="fill5"><stop offset="0" stop-color="#E7E6E6"/><stop offset="0.73" stop-color="#240046"/><stop offset="1" stop-color="#240046"/></linearGradient><clipPath id="clip6"><rect x="29" y="25" width="41" height="37"/></clipPath><clipPath id="clip7"><rect x="29" y="25" width="97" height="46"/></clipPath><clipPath id="clip8"><rect x="2147483392" y="2147483648" width="0" height="0"/></clipPath><linearGradient x1="1280" y1="681.5" x2="0" y2="681.5" gradientUnits="userSpaceOnUse" spreadMethod="reflect" id="fill9"><stop offset="0" stop-color="#E7E6E6"/><stop offset="0.46" stop-color="#240046"/><stop offset="0.94406" stop-color="#D6DCE5"/><stop offset="1" stop-color="#D6DCE5"/></linearGradient></defs><g clip-path="url(#clip3)"><rect x="0" y="0" width="1280" height="720" fill="#FFFFFF"/><rect x="0" y="0" width="1280" height="687" fill="url(#fill4)"/><rect x="0" y="687" width="1280" height="33" fill="url(#fill5)"/><path d="M81 23.0001C81 25.2091 79.2091 27 77.0001 27 74.7909 27 73 25.2091 73 23.0001 73 20.7909 74.7909 19 77.0001 19 79.2091 19 81 20.7909 81 23.0001Z" fill="#8C25ED" fill-rule="evenodd"/><path d="M36 23.0001C36 25.2091 34.433 27 32.5001 27 30.567 27 29 25.2091 29 23.0001 29 20.7909 30.567 19 32.5001 19 34.433 19 36 20.7909 36 23.0001Z" fill="#8C25ED" fill-rule="evenodd"/><path d="M66 23.0001C66 25.2091 64.2091 27 62.0001 27 59.7909 27 58 25.2091 58 23.0001 58 20.7909 59.7909 19 62.0001 19 64.2091 19 66 20.7909 66 23.0001Z" fill="#8C25ED" fill-rule="evenodd"/><path d="M51 23.0001C51 25.2091 49.2091 27 47.0001 27 44.7909 27 43 25.2091 43 23.0001 43 20.7909 44.7909 19 47.0001 19 49.2091 19 51 20.7909 51 23.0001Z" fill="#8C25ED" fill-rule="evenodd"/><path d="M85.9672 40.9778 83.5648 29.9467C83.4897 29.6445 83.3396 29.3423 83.0391 29.1155 82.1383 28.4356 81.1622 27.8312 80.036 27.5288 79.0601 27.2266 78.084 27 77.0329 27 75.9819 27 74.9308 27.1511 74.0298 27.5288 72.9037 27.9067 71.9277 28.4356 71.0267 29.1155 70.7264 29.3423 70.5763 29.6445 70.5012 29.9467L69.5251 34.4045 69.5251 34.4045 68.5492 29.9467C68.4741 29.6445 68.324 29.3423 68.0236 29.1155 67.1227 28.4356 66.1467 27.8312 65.0205 27.5288 64.0445 27.2266 63.0685 27 62.0174 27 60.9664 27 59.9152 27.1511 59.0142 27.5288 57.8882 27.9067 56.9121 28.4356 56.0111 29.1155 55.7108 29.3423 55.5607 29.6445 55.4856 29.9467L54.5096 34.3289 54.5096 34.4045 53.5337 29.9467C53.4586 29.6445 53.3084 29.3423 53.008 29.1155 52.1072 28.4356 51.1311 27.8312 50.0049 27.5288 49.029 27.2266 48.0529 27 47.0018 27 45.9508 27 44.8997 27.1511 43.9987 27.5288 42.8726 27.9067 41.8966 28.4356 40.9956 29.1155 40.6953 29.3423 40.5452 29.6445 40.4701 29.9467L39.494 34.3289 39.494 34.3289 38.5181 29.9467C38.443 29.6445 38.2929 29.3423 37.9925 29.1155 37.0916 28.4356 36.1156 27.8312 34.9893 27.5288 34.0134 27.2266 33.0374 27 31.9862 27 30.9352 27 29.8841 27.1511 28.9831 27.5288 27.8571 27.9067 26.881 28.4356 25.98 29.1155 25.6797 29.3423 25.5296 29.6445 25.4545 29.9467L23.052 40.9022C22.8268 41.7334 23.3524 42.64 24.2532 42.7911 24.3283 42.7911 24.4034 42.7911 24.4785 42.7911 25.1542 42.7911 25.7548 42.3378 25.98 41.5823L28.2324 31.5333 28.2324 36.8979 25.98 48.1556 28.2324 48.1556 28.2324 61.0001 31.2355 61.0001 31.2355 48.1556 32.7371 48.1556 32.7371 61.0001 35.7402 61.0001 35.7402 48.1556 37.9925 48.1556 35.7402 36.8979 35.7402 31.5333 37.9925 41.6579C38.1426 42.3378 38.7433 42.8668 39.4189 42.8668L39.4189 42.8668C40.0947 42.8668 40.6953 42.4133 40.8454 41.6579L43.248 31.5333 43.248 43.6223 43.248 61.0001 46.2511 61.0001 46.2511 43.6223 47.7526 43.6223 47.7526 61.0001 50.7558 61.0001 50.7558 43.6223 50.7558 31.5333 53.008 41.6579C53.1582 42.3378 53.7589 42.8668 54.5096 42.8668 54.5096 42.8668 54.5096 42.8668 54.5096 42.8668L54.5096 42.8668C55.1854 42.8668 55.7859 42.4133 55.9361 41.6579L58.2635 31.5333 58.2635 36.9734 56.0111 48.1556 58.2635 48.1556 58.2635 61.0001 61.2666 61.0001 61.2666 48.1556 62.7682 48.1556 62.7682 61.0001 65.7713 61.0001 65.7713 48.1556 68.0236 48.1556 65.7713 36.8223 65.7713 31.5333 68.0236 41.6579C68.1737 42.3378 68.7744 42.8668 69.5251 42.8668 69.5251 42.8668 69.5251 42.8668 69.5251 42.8668L69.5251 42.8668C69.5251 42.8668 69.5251 42.8668 69.5251 42.8668 70.2009 42.8668 70.8015 42.4133 71.0267 41.6579L73.2791 31.5333 73.2791 43.6223 73.2791 61.0001 76.2822 61.0001 76.2822 43.6223 77.7838 43.6223 77.7838 61.0001 80.7869 61.0001 80.7869 43.6223 80.7869 31.5333 83.0391 41.6579C83.1893 42.3378 83.79 42.8668 84.5407 42.8668 84.6908 42.8668 84.9162 42.8668 85.0663 42.7911 85.742 42.4889 86.1173 41.7334 85.9672 40.9778Z" fill="#D9D9D9" fill-rule="evenodd"/><g clip-path="url(#clip6)" filter="url(#fx0)" transform="translate(67 2)"><g><path d="M11.1042 0 11.1042-30.2917 16.2708-30.2917 16.2708 0ZM1.85417 0 1.85417-30.2917 7.02083-30.2917 7.02083 0ZM4.3125-12.5 4.3125-17.3542 14.4583-17.3542 14.4583-12.5ZM22.3333-12.8125 22.3333-17.7708 27.7917-17.7708C28.4722-17.7708 29-17.9479 29.375-18.3021 29.75-18.6562 29.9375-19.1458 29.9375-19.7708L29.9375-23.1458C29.9375-23.8403 29.75-24.3819 29.375-24.7708 29-25.1597 28.4722-25.3542 27.7917-25.3542L22.3333-25.3542 22.3333-30.3125 27.4792-30.3125C29.1181-30.3125 30.5174-30.0451 31.6771-29.5104 32.8368-28.9757 33.7222-28.1944 34.3333-27.1667 34.9444-26.1389 35.25-24.8958 35.25-23.4375L35.25-19.8958C35.25-18.3958 34.9444-17.1181 34.3333-16.0625 33.7222-15.0069 32.8368-14.2014 31.6771-13.6458 30.5174-13.0903 29.1181-12.8125 27.4792-12.8125ZM20.0208 0 20.0208-30.3125 25.0833-30.3125 25.0833 0ZM30.5625 0 26.5417-13.75 31.2708-14.7083 36.1042 0Z" fill="#FFFFFF" transform="translate(30.1952 59)"/></g></g><path d="M11.1042 0 11.1042-30.2917 16.2708-30.2917 16.2708 0ZM1.85417 0 1.85417-30.2917 7.02083-30.2917 7.02083 0ZM4.3125-12.5 4.3125-17.3542 14.4583-17.3542 14.4583-12.5ZM22.3333-12.8125 22.3333-17.7708 27.7917-17.7708C28.4722-17.7708 29-17.9479 29.375-18.3021 29.75-18.6562 29.9375-19.1458 29.9375-19.7708L29.9375-23.1458C29.9375-23.8403 29.75-24.3819 29.375-24.7708 29-25.1597 28.4722-25.3542 27.7917-25.3542L22.3333-25.3542 22.3333-30.3125 27.4792-30.3125C29.1181-30.3125 30.5174-30.0451 31.6771-29.5104 32.8368-28.9757 33.7222-28.1944 34.3333-27.1667 34.9444-26.1389 35.25-24.8958 35.25-23.4375L35.25-19.8958C35.25-18.3958 34.9444-17.1181 34.3333-16.0625 33.7222-15.0069 32.8368-14.2014 31.6771-13.6458 30.5174-13.0903 29.1181-12.8125 27.4792-12.8125ZM20.0208 0 20.0208-30.3125 25.0833-30.3125 25.0833 0ZM30.5625 0 26.5417-13.75 31.2708-14.7083 36.1042 0Z" fill="#FFFFFF" transform="translate(95.5283 59)"/><text fill="#000000" fill-opacity="0" font-family="Arial,Arial_MSFontService,sans-serif" font-size="30.3125" x="1.85417" y="-3.78906">HR</text><g clip-path="url(#clip7)" filter="url(#fx1)" transform="translate(113 2)"><g><path d="M4.16667-12.8125 4.16667-17.7708 9.625-17.7708C10.3056-17.7708 10.8333-17.9479 11.2083-18.3021 11.5833-18.6562 11.7708-19.1458 11.7708-19.7708L11.7708-23.1458C11.7708-23.8403 11.5833-24.3819 11.2083-24.7708 10.8333-25.1597 10.3056-25.3542 9.625-25.3542L4.16667-25.3542 4.16667-30.3125 9.3125-30.3125C10.9514-30.3125 12.3507-30.0451 13.5104-29.5104 14.6701-28.9757 15.5556-28.1944 16.1667-27.1667 16.7778-26.1389 17.0833-24.8958 17.0833-23.4375L17.0833-19.8958C17.0833-18.3958 16.7778-17.1181 16.1667-16.0625 15.5556-15.0069 14.6701-14.2014 13.5104-13.6458 12.3507-13.0903 10.9514-12.8125 9.3125-12.8125ZM1.85417 0 1.85417-30.3125 6.91667-30.3125 6.91667 0ZM12.3958 0 8.375-13.75 13.1042-14.7083 17.9375 0ZM26.9375 0.3125C24.7847 0.3125 23.1076-0.267361 21.9062-1.42708 20.7049-2.58681 20.1042-4.22222 20.1042-6.33333L20.1042-14.9583C20.1042-17.2083 20.691-18.9444 21.8646-20.1667 23.0382-21.3889 24.6736-22 26.7708-22 28.9236-22 30.5903-21.4028 31.7708-20.2083 32.9514-19.0139 33.5417-17.3194 33.5417-15.125L33.5417-9 24.2708-9 24.2708-12.7708 28.5417-12.7708 28.5417-15.3542C28.5417-15.9931 28.3854-16.4931 28.0729-16.8542 27.7604-17.2153 27.3264-17.3958 26.7708-17.3958 26.2569-17.3958 25.8542-17.2049 25.5625-16.8229 25.2708-16.441 25.125-15.9028 25.125-15.2083L25.125-6.16667C25.125-5.56944 25.2847-5.11111 25.6042-4.79167 25.9236-4.47222 26.3681-4.3125 26.9375-4.3125 27.4792-4.3125 27.8958-4.44444 28.1875-4.70833 28.4792-4.97222 28.625-5.34722 28.625-5.83333L28.625-6.58333 33.6042-6.54167 33.6042-5.9375C33.6042-3.95139 33.0208-2.41319 31.8542-1.32292 30.6875-0.232639 29.0486 0.3125 26.9375 0.3125ZM37.2292 8.79167 37.2292-21.625 42.3958-21.625 42.3958 8.79167ZM46.3125 0.3125C45.3264 0.3125 44.4688-0.0138889 43.7396-0.666667 43.0104-1.31944 42.4653-2.22917 42.1042-3.39583L42.3958-6.4375C42.3958-5.97917 42.4618-5.59722 42.5938-5.29167 42.7257-4.98611 42.9167-4.75347 43.1667-4.59375 43.4167-4.43403 43.7222-4.35417 44.0833-4.35417 44.6111-4.35417 45.0069-4.54514 45.2708-4.92708 45.5347-5.30903 45.6667-5.84028 45.6667-6.52083L45.6667-15.2708C45.6667-15.9236 45.5347-16.4306 45.2708-16.7917 45.0069-17.1528 44.6111-17.3333 44.0833-17.3333 43.7222-17.3333 43.4167-17.2639 43.1667-17.125 42.9167-16.9861 42.7257-16.7708 42.5938-16.4792 42.4618-16.1875 42.3958-15.8125 42.3958-15.3542L41.9583-18.0417C42.4444-19.2917 43.0694-20.2639 43.8333-20.9583 44.5972-21.6528 45.4514-22 46.3958-22 47.7847-22 48.8542-21.4861 49.6042-20.4583 50.3542-19.4306 50.7292-17.9583 50.7292-16.0417L50.7292-5.77083C50.7292-3.84028 50.3438-2.34375 49.5729-1.28125 48.8021-0.21875 47.7153 0.3125 46.3125 0.3125ZM60.4375 0.3125C58.3958 0.3125 56.8021-0.204861 55.6563-1.23958 54.5104-2.27431 53.9375-3.72222 53.9375-5.58333L53.9375-16.2083C53.9375-18.0556 54.5104-19.4826 55.6563-20.4896 56.8021-21.4965 58.3958-22 60.4375-22 62.4653-22 64.0486-21.4965 65.1875-20.4896 66.3264-19.4826 66.8958-18.0556 66.8958-16.2083L66.8958-5.52083C66.8958-3.67361 66.3264-2.23958 65.1875-1.21875 64.0486-0.197917 62.4653 0.3125 60.4375 0.3125ZM60.4375-4.33333C60.8681-4.33333 61.2014-4.47569 61.4375-4.76042 61.6736-5.04514 61.7917-5.44444 61.7917-5.95833L61.7917-15.8125C61.7917-16.2986 61.6736-16.6806 61.4375-16.9583 61.2014-17.2361 60.8681-17.375 60.4375-17.375 60.0069-17.375 59.6667-17.2361 59.4167-16.9583 59.1667-16.6806 59.0417-16.2986 59.0417-15.8125L59.0417-5.95833C59.0417-5.44444 59.1667-5.04514 59.4167-4.76042 59.6667-4.47569 60.0069-4.33333 60.4375-4.33333ZM70.5625 0 70.5625-21.625 75.7292-21.625 75.7292 0ZM80.9167-16.5417C80.75-16.5417 80.559-16.5417 80.3438-16.5417 80.1285-16.5417 79.8819-16.5417 79.6042-16.5417 78.3819-16.5417 77.4306-16.1736 76.75-15.4375 76.0694-14.7014 75.7292-13.7014 75.7292-12.4375L75.2917-17.8542C75.9028-19.1319 76.6944-20.1424 77.6667-20.8854 78.6389-21.6285 79.7222-22 80.9167-22 80.9028-22 80.8958-22 80.8958-22 80.8958-22 80.9028-22 80.9167-22ZM89.75 0.104167C87.8056 0.104167 86.3785-0.388889 85.4688-1.375 84.559-2.36111 84.1042-3.77778 84.1042-5.625L84.1042-27.9167 89.25-27.9167 89.25-6.45833C89.25-6 89.3646-5.63889 89.5938-5.375 89.8229-5.11111 90.1389-4.97917 90.5417-4.97917L92.0208-4.97917 92.0208 0.104167ZM82.2292-16.8958 82.2292-21.625 92.0208-21.625 92.0208-16.8958Z" fill="#FFFFFF" transform="translate(30.3619 59)"/></g></g><path d="M4.16667-12.8125 4.16667-17.7708 9.625-17.7708C10.3056-17.7708 10.8333-17.9479 11.2083-18.3021 11.5833-18.6562 11.7708-19.1458 11.7708-19.7708L11.7708-23.1458C11.7708-23.8403 11.5833-24.3819 11.2083-24.7708 10.8333-25.1597 10.3056-25.3542 9.625-25.3542L4.16667-25.3542 4.16667-30.3125 9.3125-30.3125C10.9514-30.3125 12.3507-30.0451 13.5104-29.5104 14.6701-28.9757 15.5556-28.1944 16.1667-27.1667 16.7778-26.1389 17.0833-24.8958 17.0833-23.4375L17.0833-19.8958C17.0833-18.3958 16.7778-17.1181 16.1667-16.0625 15.5556-15.0069 14.6701-14.2014 13.5104-13.6458 12.3507-13.0903 10.9514-12.8125 9.3125-12.8125ZM1.85417 0 1.85417-30.3125 6.91667-30.3125 6.91667 0ZM12.3958 0 8.375-13.75 13.1042-14.7083 17.9375 0ZM26.9375 0.3125C24.7847 0.3125 23.1076-0.267361 21.9062-1.42708 20.7049-2.58681 20.1042-4.22222 20.1042-6.33333L20.1042-14.9583C20.1042-17.2083 20.691-18.9444 21.8646-20.1667 23.0382-21.3889 24.6736-22 26.7708-22 28.9236-22 30.5903-21.4028 31.7708-20.2083 32.9514-19.0139 33.5417-17.3194 33.5417-15.125L33.5417-9 24.2708-9 24.2708-12.7708 28.5417-12.7708 28.5417-15.3542C28.5417-15.9931 28.3854-16.4931 28.0729-16.8542 27.7604-17.2153 27.3264-17.3958 26.7708-17.3958 26.2569-17.3958 25.8542-17.2049 25.5625-16.8229 25.2708-16.441 25.125-15.9028 25.125-15.2083L25.125-6.16667C25.125-5.56944 25.2847-5.11111 25.6042-4.79167 25.9236-4.47222 26.3681-4.3125 26.9375-4.3125 27.4792-4.3125 27.8958-4.44444 28.1875-4.70833 28.4792-4.97222 28.625-5.34722 28.625-5.83333L28.625-6.58333 33.6042-6.54167 33.6042-5.9375C33.6042-3.95139 33.0208-2.41319 31.8542-1.32292 30.6875-0.232639 29.0486 0.3125 26.9375 0.3125ZM37.2292 8.79167 37.2292-21.625 42.3958-21.625 42.3958 8.79167ZM46.3125 0.3125C45.3264 0.3125 44.4688-0.0138889 43.7396-0.666667 43.0104-1.31944 42.4653-2.22917 42.1042-3.39583L42.3958-6.4375C42.3958-5.97917 42.4618-5.59722 42.5938-5.29167 42.7257-4.98611 42.9167-4.75347 43.1667-4.59375 43.4167-4.43403 43.7222-4.35417 44.0833-4.35417 44.6111-4.35417 45.0069-4.54514 45.2708-4.92708 45.5347-5.30903 45.6667-5.84028 45.6667-6.52083L45.6667-15.2708C45.6667-15.9236 45.5347-16.4306 45.2708-16.7917 45.0069-17.1528 44.6111-17.3333 44.0833-17.3333 43.7222-17.3333 43.4167-17.2639 43.1667-17.125 42.9167-16.9861 42.7257-16.7708 42.5938-16.4792 42.4618-16.1875 42.3958-15.8125 42.3958-15.3542L41.9583-18.0417C42.4444-19.2917 43.0694-20.2639 43.8333-20.9583 44.5972-21.6528 45.4514-22 46.3958-22 47.7847-22 48.8542-21.4861 49.6042-20.4583 50.3542-19.4306 50.7292-17.9583 50.7292-16.0417L50.7292-5.77083C50.7292-3.84028 50.3438-2.34375 49.5729-1.28125 48.8021-0.21875 47.7153 0.3125 46.3125 0.3125ZM60.4375 0.3125C58.3958 0.3125 56.8021-0.204861 55.6563-1.23958 54.5104-2.27431 53.9375-3.72222 53.9375-5.58333L53.9375-16.2083C53.9375-18.0556 54.5104-19.4826 55.6563-20.4896 56.8021-21.4965 58.3958-22 60.4375-22 62.4653-22 64.0486-21.4965 65.1875-20.4896 66.3264-19.4826 66.8958-18.0556 66.8958-16.2083L66.8958-5.52083C66.8958-3.67361 66.3264-2.23958 65.1875-1.21875 64.0486-0.197917 62.4653 0.3125 60.4375 0.3125ZM60.4375-4.33333C60.8681-4.33333 61.2014-4.47569 61.4375-4.76042 61.6736-5.04514 61.7917-5.44444 61.7917-5.95833L61.7917-15.8125C61.7917-16.2986 61.6736-16.6806 61.4375-16.9583 61.2014-17.2361 60.8681-17.375 60.4375-17.375 60.0069-17.375 59.6667-17.2361 59.4167-16.9583 59.1667-16.6806 59.0417-16.2986 59.0417-15.8125L59.0417-5.95833C59.0417-5.44444 59.1667-5.04514 59.4167-4.76042 59.6667-4.47569 60.0069-4.33333 60.4375-4.33333ZM70.5625 0 70.5625-21.625 75.7292-21.625 75.7292 0ZM80.9167-16.5417C80.75-16.5417 80.559-16.5417 80.3438-16.5417 80.1285-16.5417 79.8819-16.5417 79.6042-16.5417 78.3819-16.5417 77.4306-16.1736 76.75-15.4375 76.0694-14.7014 75.7292-13.7014 75.7292-12.4375L75.2917-17.8542C75.9028-19.1319 76.6944-20.1424 77.6667-20.8854 78.6389-21.6285 79.7222-22 80.9167-22 80.9028-22 80.8958-22 80.8958-22 80.8958-22 80.9028-22 80.9167-22ZM89.75 0.104167C87.8056 0.104167 86.3785-0.388889 85.4688-1.375 84.559-2.36111 84.1042-3.77778 84.1042-5.625L84.1042-27.9167 89.25-27.9167 89.25-6.45833C89.25-6 89.3646-5.63889 89.5938-5.375 89.8229-5.11111 90.1389-4.97917 90.5417-4.97917L92.0208-4.97917 92.0208 0.104167ZM82.2292-16.8958 82.2292-21.625 92.0208-21.625 92.0208-16.8958Z" fill="#FFFFFF" transform="translate(141.695 59)"/><text fill="#000000" fill-opacity="0" font-family="Arial,Arial_MSFontService,sans-serif" font-size="39.1042" x="1.85417" y="3.90365">Report</text><g clip-path="url(#clip8)" filter="url(#fx2)" transform="translate(206 2)"><g><path d="" fill="#EAD3FF" transform="translate(30.3619 59)"/></g></g><text fill="#EAD3FF" font-family="Bahnschrift Condensed,Bahnschrift Condensed_MSFontService,sans-serif" font-weight="700" font-stretch="condensed" font-size="42.6667" transform="translate(234.695 59)"></text><rect x="17" y="76" width="494" height="578" fill="#0D0D0D" fill-opacity="0.121569"/><text fill="#FFFFFF" font-family="Tw Cen MT,Tw Cen MT_MSFontService,sans-serif" font-weight="400" font-size="21.3333" transform="translate(26.4147 100)">Presenting an HR Analytics Report, a concise summary</text><text fill="#FFFFFF" font-family="Tw Cen MT,Tw Cen MT_MSFontService,sans-serif" font-weight="400" font-size="21.3333" transform="translate(26.4147 126)">of headcount, retention and turnover metrics displayed</text><text fill="#FFFFFF" font-family="Tw Cen MT,Tw Cen MT_MSFontService,sans-serif" font-weight="400" font-size="21.3333" transform="translate(26.4147 151)">through an intuitive data visualization dashboard.</text><text fill="#FFFFFF" font-family="Tw Cen MT,Tw Cen MT_MSFontService,sans-serif" font-weight="400" font-size="21.3333" transform="translate(26.4147 203)">This powerful tool provides HR professionals with a</text><text fill="#FFFFFF" font-family="Tw Cen MT,Tw Cen MT_MSFontService,sans-serif" font-weight="400" font-size="21.3333" transform="translate(26.4147 228)">comprehensive overview of workforce dynamics,</text><text fill="#FFFFFF" font-family="Tw Cen MT,Tw Cen MT_MSFontService,sans-serif" font-weight="400" font-size="21.3333" transform="translate(26.4147 254)">enabling them to make informed decisions based on</text><text fill="#FFFFFF" font-family="Tw Cen MT,Tw Cen MT_MSFontService,sans-serif" font-weight="400" font-size="21.3333" transform="translate(26.4147 279)">visual insights.</text><text fill="#FFFFFF" font-family="Tw Cen MT,Tw Cen MT_MSFontService,sans-serif" font-weight="400" font-size="21.3333" transform="translate(26.4147 331)">The dashboard features interactive charts and graphs,</text><text fill="#FFFFFF" font-family="Tw Cen MT,Tw Cen MT_MSFontService,sans-serif" font-weight="400" font-size="21.3333" transform="translate(26.4147 356)">allowing easy exploration of headcount trends,</text><text fill="#FFFFFF" font-family="Tw Cen MT,Tw Cen MT_MSFontService,sans-serif" font-weight="400" font-size="21.3333" transform="translate(26.4147 382)">retention rates, and turnover statistics.</text><text fill="#FFFFFF" font-family="Tw Cen MT,Tw Cen MT_MSFontService,sans-serif" font-weight="400" font-size="21.3333" transform="translate(26.4147 433)">By harnessing the power of data visualization, this</text><text fill="#FFFFFF" font-family="Tw Cen MT,Tw Cen MT_MSFontService,sans-serif" font-weight="400" font-size="21.3333" transform="translate(26.4147 459)">report equips HR teams with knowledge to identify</text><text fill="#FFFFFF" font-family="Tw Cen MT,Tw Cen MT_MSFontService,sans-serif" font-weight="400" font-size="21.3333" transform="translate(26.4147 484)">patterns, analyze attrition trends, and develop</text><text fill="#FFFFFF" font-family="Tw Cen MT,Tw Cen MT_MSFontService,sans-serif" font-weight="400" font-size="21.3333" transform="translate(26.4147 510)">targeted strategies for talent retention.</text><text fill="#FFFFFF" font-family="Tw Cen MT,Tw Cen MT_MSFontService,sans-serif" font-weight="400" font-size="21.3333" transform="translate(26.4147 561)">Navigating the vast seas of HR Analytics has never</text><text fill="#FFFFFF" font-family="Tw Cen MT,Tw Cen MT_MSFontService,sans-serif" font-weight="400" font-size="21.3333" transform="translate(26.4147 587)">been easier, empowering organizations to optimize</text><text fill="#FFFFFF" font-family="Tw Cen MT,Tw Cen MT_MSFontService,sans-serif" font-weight="400" font-size="21.3333" transform="translate(26.4147 612)">their workforce and foster a culture of engagement and</text><text fill="#FFFFFF" font-family="Tw Cen MT,Tw Cen MT_MSFontService,sans-serif" font-weight="400" font-size="21.3333" transform="translate(26.4147 638)">growth.</text><rect x="0" y="678" width="1280" height="7" fill="url(#fill9)"/></g></svg>